<?xml version="1.0" encoding="UTF-8" standalone="no"?>
<svg
   xmlns:dc="http://purl.org/dc/elements/1.1/"
   xmlns:cc="http://creativecommons.org/ns#"
   xmlns:rdf="http://www.w3.org/1999/02/22-rdf-syntax-ns#"
   xmlns:svg="http://www.w3.org/2000/svg"
   xmlns="http://www.w3.org/2000/svg"
   viewBox="0 0 659.20001 342.23999"
   height="342.23999"
   width="659.20001"
   xml:space="preserve"
   id="svg2"
   version="1.1"><metadata
     id="metadata8"><rdf:RDF><cc:Work
         rdf:about=""><dc:format>image/svg+xml</dc:format><dc:type
           rdf:resource="http://purl.org/dc/dcmitype/StillImage" /></cc:Work></rdf:RDF></metadata><defs
     id="defs6" /><g
     transform="matrix(1.3333333,0,0,-1.3333333,0,342.24)"
     id="g10"><g
       transform="scale(0.1)"
       id="g12"><path
         id="path14"
         style="fill:none;stroke:#a6a9a7;stroke-width:7.5;stroke-linecap:butt;stroke-linejoin:round;stroke-miterlimit:10;stroke-dasharray:none;stroke-opacity:1"
         d="m 2204.4,1635.6 352.8,-354 -352.8,-353.998 -354,353.998 354,354" /><path
         id="path16"
         style="fill:none;stroke:#a6a9a7;stroke-width:7.5;stroke-linecap:butt;stroke-linejoin:round;stroke-miterlimit:10;stroke-dasharray:none;stroke-opacity:1"
         d="m 2204.4,1989.6 706.8,-708 -706.8,-705.6 -708,705.6 708,708" /><path
         id="path18"
         style="fill:none;stroke:#a6a9a7;stroke-width:7.5;stroke-linecap:butt;stroke-linejoin:round;stroke-miterlimit:10;stroke-dasharray:none;stroke-opacity:1"
         d="M 2204.4,2342.4 3265.2,1281.6 2204.4,222 1143.6,1281.6 2204.4,2342.4" /><path
         id="path20"
         style="fill:none;stroke:#a6a9a7;stroke-width:7.5;stroke-linecap:butt;stroke-linejoin:round;stroke-miterlimit:10;stroke-dasharray:none;stroke-opacity:1"
         d="M 2204.4,1281.6 V 2342.4" /><path
         id="path22"
         style="fill:none;stroke:#a6a9a7;stroke-width:7.5;stroke-linecap:butt;stroke-linejoin:round;stroke-miterlimit:10;stroke-dasharray:none;stroke-opacity:1"
         d="M 2204.4,1281.6 H 3265.2" /><path
         id="path24"
         style="fill:none;stroke:#a6a9a7;stroke-width:7.5;stroke-linecap:butt;stroke-linejoin:round;stroke-miterlimit:10;stroke-dasharray:none;stroke-opacity:1"
         d="M 2204.4,1281.6 V 222" /><path
         id="path26"
         style="fill:none;stroke:#a6a9a7;stroke-width:7.5;stroke-linecap:butt;stroke-linejoin:round;stroke-miterlimit:10;stroke-dasharray:none;stroke-opacity:1"
         d="M 2204.4,1281.6 H 1143.6" /><path
         id="path28"
         style="fill:none;stroke:#a6a9a7;stroke-width:7.5;stroke-linecap:butt;stroke-linejoin:round;stroke-miterlimit:10;stroke-dasharray:none;stroke-opacity:1"
         d="M 2204.4,1281.6 V 2342.4" /><path
         id="path30"
         style="fill:none;stroke:#224c8f;stroke-width:18.95999908;stroke-linecap:round;stroke-linejoin:round;stroke-miterlimit:10;stroke-dasharray:none;stroke-opacity:1"
         d="m 1850.4,1281.6 354,708 530.4,-708 -530.4,-352.799 -354,352.799" /><path
         id="path32"
         style="fill:none;stroke:#f03f2a;stroke-width:18.95999908;stroke-linecap:round;stroke-linejoin:round;stroke-miterlimit:10;stroke-dasharray:none;stroke-opacity:1"
         d="M 1497.6,1281.6 2204.4,1812 2911.2,1281.6 2204.4,752.398 1497.6,1281.6" /><g
         transform="scale(10)"
         id="g34"><text
           id="text44"
           style="font-variant:normal;font-weight:normal;font-size:8.34189987px;font-family:Arial;-inkscape-font-specification:ArialMT;writing-mode:lr-tb;fill:#231f20;fill-opacity:1;fill-rule:nonzero;stroke:none"
           transform="matrix(1,0,0,-1,209.622,125.04)"><tspan
             id="tspan36"
             y="0"
             x="0 2.7778528">--</tspan><tspan
             id="tspan38"
             y="-35.279701"
             x="1.38906">-</tspan><tspan
             id="tspan40"
             y="-70.679703"
             x="0.34218001">+</tspan><tspan
             id="tspan42"
             y="-106.0793"
             x="-2.09376 2.7779095">++</tspan></text>
<text
           id="text56"
           style="font-variant:normal;font-weight:normal;font-size:8.34189987px;font-family:Arial;-inkscape-font-specification:ArialMT;writing-mode:lr-tb;fill:#231f20;fill-opacity:1;fill-rule:nonzero;stroke:none"
           transform="matrix(1,1e-8,-1e-8,-1,184.32,240.72)"><tspan
             id="tspan46"
             y="0"
             x="0 4.5640607 8.8769541 13.441015 15.725004 20.290237 22.807039 24.975014 27.342987 31.907061 36.128155 40.80883 45.489994 50.171158 51.974277 56.655441 61.336605 63.231331 67.796188">use of technologies</tspan><tspan
             id="tspan48"
             y="115.32"
             x="146.27901 150.4919 155.17256 157.06807 161.15518 163.05069 167.73137 172.29622 174.58022 179.26186 181.62123 183.78844 188.00133 192.68141 199.52243 204.1951 206.08961 210.77127 214.98338 217.15135 221.83223 224.59433 229.27441 233.83928 235.73381 240.41545 247.25533">solving of complex problems</tspan><tspan
             id="tspan50"
             y="230.64101"
             x="2.8800001 8.878828 13.551873 16.304995 20.49992 22.412025 27.085083 31.649157 33.933147 39.933147 41.844864 44.144867 48.817924 50.985901 55.298012 59.863255 64.535141">working with code</tspan><tspan
             id="tspan52"
             y="110.52"
             x="-151.2 -146.63554 -142.43945 -137.75859 -135.47421 -130.90976 -128.39218 -126.22501 -122.01211 -117.33086 -110.49023 -105.80908 -101.12852 -98.84375 -94.163284 -91.878525 -89.983505 -85.302742 -80.738686 -76.065636 -74.170715">use of computational </tspan><tspan
             id="tspan54"
             y="120.12"
             x="-127.2 -124.82422 -120.25938 -118.35606 -113.6668 -109.4711 -107.55938 -102.86993">thinking</tspan></text>
</g><path
         id="path58"
         style="fill:none;stroke:#224c8f;stroke-width:18.95999908;stroke-linecap:round;stroke-linejoin:round;stroke-miterlimit:10;stroke-dasharray:none;stroke-opacity:1"
         d="m 3336,1934.4 h 160.8" /><g
         transform="scale(10)"
         id="g60"><text
           id="text64"
           style="font-variant:normal;font-weight:normal;font-size:8.34189987px;font-family:Arial;-inkscape-font-specification:ArialMT;writing-mode:lr-tb;fill:#231f20;fill-opacity:1;fill-rule:nonzero;stroke:none"
           transform="matrix(1,1e-8,-1e-8,-1,351.24,190.561)"><tspan
             id="tspan62"
             y="0"
             x="0 4.6806746 9.3621302 11.729322 16.411366 19.172298">before</tspan></text>
</g><path
         id="path66"
         style="fill:none;stroke:#f03f2a;stroke-width:18.95999908;stroke-linecap:round;stroke-linejoin:round;stroke-miterlimit:10;stroke-dasharray:none;stroke-opacity:1"
         d="m 3336,1809.6 h 160.8" /><g
         transform="scale(10)"
         id="g68"><text
           id="text72"
           style="font-variant:normal;font-weight:normal;font-size:8.34189987px;font-family:Arial;-inkscape-font-specification:ArialMT;writing-mode:lr-tb;fill:#231f20;fill-opacity:1;fill-rule:nonzero;stroke:none"
           transform="matrix(1,1e-8,-1e-8,-1,351.24,177.961)"><tspan
             id="tspan70"
             y="0"
             x="0 4.6972761 7.0742345 9.4502163 14.147297">after</tspan></text>
</g></g></g></svg>