<?xml version='1.0' encoding='utf-8'?>
<svg xmlns="http://www.w3.org/2000/svg" width="400mm" height="209.63mm" clip-rule="evenodd" fill-rule="evenodd" image-rendering="optimizeQuality" shape-rendering="geometricPrecision" text-rendering="geometricPrecision" version="1.1" viewBox="0 0 40000 20963">
 <defs>
  <style type="text/css">
   
    .fil0 {fill:#EEE8D0}
    .fil1 {fill:#83836C}
    .fil2 {fill:#83836C;fill-rule:nonzero}
   
  </style>
 </defs>
  
    <path class="fil1" d="m26463 3302l807-466-659-659v315c-734-34-878 388-808 973 118-409 345-630 730-576l-70 413z"/>
    <path class="fil1" d="m7024 3271h-932l242-900 157 272c619-396 954-103 1186 439-307-295-613-373-920-133l267 322z"/>
    <path class="fil1" d="m10806 2342c-81 0-147 66-147 147v784c0 81 66 148 148 148h783c81 0 148-67 148-148-4-109-276-149-470-234l545-545c38-39 38-101 0-139l-105-105c-38-38-100-38-138 0l-539 539c-76-189-114-433-225-447z"/>
    <path class="fil1" d="m9726 2769c57 58 57 152 0 209l-554 554c-58 58-151 58-209 0l-554-554c-58-57-58-151 0-209 80-75 300 90 498 167v-771c0-54 44-98 98-98h148c54 0 98 44 98 98v761c187-79 387-225 475-157z"/>
    <path class="fil1" d="m13876 2342c82 0 148 66 148 147v784c0 81-66 148-148 148h-783c-82 0-148-67-148-148 3-109 276-149 470-234l-545-545c-38-39-38-101 0-139l105-105c38-38 100-38 138 0l538 539c77-189 115-433 225-447z"/>
    <path class="fil1" d="m20639 2873c58-57 58-151 0-209l-554-554c-57-57-151-57-209 0l-554 554c-57 58-57 152 0 209 80 75 301-89 498-166v770c0 54 44 98 98 98h148c54 0 98-44 98-98v-761c187 80 387 226 475 157z"/>
    <path class="fil1" d="m15667 3480c-57 57-151 57-209 0l-554-554c-57-58-57-152 0-209l554-554c58-58 152-58 209 0 75 79-89 300-166 498h771c53 0 97 44 97 97v149c0 54-44 98-97 98h-762c80 187 226 387 157 475z"/>
    <path class="fil1" d="m17746 3480c58 57 151 57 209 0l554-554c57-58 57-152 0-209l-554-554c-58-58-151-58-209 0-75 79 89 300 167 498h-771c-54 0-98 44-98 97v149c0 54 44 98 98 98h761c-79 187-225 387-157 475z"/>
    <path class="fil1" d="m24790 3301c81 0 147-67 147-148v-784c0-81-66-147-147-147h-784c-81 0-148 66-148 147 4 110 276 150 470 235l-545 545c-38 38-38 100 0 138l105 105c38 38 100 38 138 0l539-538c76 188 114 433 225 447z"/>
    <path class="fil1" d="m28777 3302l-807-466 659-659v315c734-34 878 388 808 973-118-409-345-630-730-576l70 413z"/>
    <path class="fil1" d="m21720 3301c-82 0-148-67-148-148v-784c0-81 66-147 148-147h783c82 0 148 66 148 147-3 110-276 150-470 235l545 545c38 38 38 100 0 138l-105 105c-38 38-100 38-138 0l-538-538c-76 188-115 433-225 447z"/>
    <polygon class="fil1" points="32403 2821 32706 3101 33009 3381 33009 3037 33751 3037 33751 2586 33009 2586 33009 2261 32706 2541"/>
    <path class="fil1" d="m4563 3271h932l-242-900-157 272c-619-396-954-103-1186 439 306-295 613-373 920-133l-267 322z"/>
    <polygon class="fil1" points="30894 3495 31174 3192 31454 2889 31110 2889 31110 2147 30659 2147 30659 2889 30334 2889 30614 3192"/>
    <polygon class="fil1" points="35933 2821 35630 3101 35327 3381 35327 3037 34585 3037 34585 2586 35327 2586 35327 2261 35630 2541"/>
        <path class="fil2" d="m26111 6642c68 0 122-55 122-122s-54-122-122-122c-67 0-122 55-122 122s55 122 122 122z"/>
        <path class="fil2" d="m26246 6673c87 0 157 70 157 157v378c0 30-23 54-52 54-30 0-54-24-54-54v-341h-27v950c0 40-33 72-72 72-40 0-72-32-72-72v-552h-29v552c0 40-33 72-72 72-40 0-72-32-72-72v-950h-28v341c0 30-23 54-53 54s-53-24-53-54v-378c0-87 71-157 157-157h270z"/>
         <path class="fil2" d="m26890 6638c-69 0-125-56-125-124s56-123 125-123c68 0 124 55 124 123s-56 124-124 124z"/>
        <path class="fil2" d="m26795 6665s-114-4-154 132l-98 341c-9 32 9 56 37 64 27 8 56-6 63-31l96-333h25l-165 576h156v423c0 32 27 59 61 59 30 0 61-30 61-62v-420h25v420c0 32 31 62 61 62 34 0 61-27 61-59v-423h156l-165-576h26l95 333c7 25 36 39 63 31 28-8 46-32 36-64l-97-341c-40-136-154-132-154-132h-189z"/>
    <path class="fil1" d="m7115 6832c-249 0-450 135-450 301s201 293 450 301c53 45 46 80 215 103-39-30-89-54-81-114 183-35 316-154 316-290 0-168-201-301-450-301zm-604-82c124 0 230 49 279 120-110 62-179 154-179 257 0 6 0 12 1 18-32 8-66 13-101 14-37 31-32 55-147 70 27-20 61-37 55-77-124-24-215-105-215-198 0-114 137-204 307-204z"/>
     <path class="fil1" d="m10654 6634l87-87c52-51 159-58 212 10 72 92 184 196 281 266l-305 306c-55-89-191-224-264-284-66-55-63-159-11-211z"/>
     <polygon class="fil1" points="11072 7306 11408 6962 11245 6834 10936 7142"/>
     <polygon class="fil1" points="11885 7779 11223 7164 11248 7142 11270 7117"/>
    <path class="fil2" d="m9060 7586c117 0 210-1 280-2h175c45 0 74-14 87-41 13-28 20-52 20-73v-506c0-21-7-44-20-72-13-27-42-40-87-39-44 0-88 0-132-1-44 0-88-1-132-1 4-25 3-56-3-94-5-38-23-57-54-57h-253c-23 0-38 10-46 31-7 21-11 43-11 65v55c-44 0-88 1-132 1-44 1-88 1-132 1-43-1-71 12-86 39-14 28-21 51-21 72v509c0 20 7 44 20 70 14 27 43 41 87 41h132c44 1 88 1 132 1 1 1 60 2 176 1zm-121-798c4-25 16-37 37-37 31 0 59 0 84-1 25 0 59-1 102-1 17 0 28 8 34 23 6 14 9 29 9 42 0 14-1 25-2 35h-266c-2-17-2-37 2-61z"/>
     <path class="fil1" d="m12898 6607c37-16 77-19 119-10l201 1124c-37 23-77 26-120 10-67-374-133-749-200-1124z"/>
     <polygon class="fil1" points="13145 6588 13176 6573 13206 6562 13236 6554 13265 6549 13294 6546 13322 6545 13350 6547 13378 6551 13406 6556 13433 6563 13460 6571 13487 6580 13513 6589 13540 6599 13566 6610 13592 6620 13618 6629 13644 6639 13670 6647 13696 6654 13722 6659 13748 6662 13774 6663 13801 6661 13827 6656 13854 6647 13878 6636 13968 7211 13968 7211 13947 7219 13926 7224 13906 7226 13886 7226 13866 7225 13845 7221 13824 7216 13803 7209 13781 7201 13759 7192 13736 7182 13713 7171 13689 7160 13664 7149 13639 7138 13613 7128 13586 7118 13559 7110 13530 7103 13501 7097 13470 7094 13439 7094 13407 7096 13374 7101 13340 7110 13305 7122 13269 7137 13233 7157 13196 7181 13166 7203 13061 6645 13080 6630 13113 6607"/>
    <path class="fil1" d="m20115 6660c37 14 73 32 106 53l55-54c52-53 137-53 189 0 53 52 53 137 0 189l-69 69c13 30 24 60 31 92h105c74 0 134 61 134 134 0 74-60 134-134 134h-119c-9 27-20 52-33 76l85 85c53 53 53 138 0 190-52 52-137 52-189 0l-85-85c-24 14-50 26-76 35v117c0 73-61 134-134 134-74 0-134-61-134-134v-101c-33-8-65-19-95-32l-67 66c-52 52-137 52-189 0s-52-137 0-189l52-52c-23-34-41-71-54-110h-65c-74 0-134-60-134-134 0-73 60-134 134-134h51c10-45 27-88 49-127l-33-34c-52-52-52-137 0-189s137-53 189 0l35 34c39-22 82-38 127-48v-53c0-74 60-134 134-134 73 0 134 60 134 134v68zm-134 263c121 0 220 98 220 220s-99 221-220 221c-122 0-221-99-221-221s99-220 221-220z"/>
    <path class="fil1" d="m15075 6614c12-2 25-4 37-6 28-5 60 8 72 29l16 28c38-94 307-142 480 34 95 69 162 21 257 22 78 156 177 306 254 462-83 46-199 64-283 47-148-132-301-205-457-130-21-234-105-358-246-427 79 139 161 282 245 429 93 164 190 334 290 510 14 25 5 56-21 69-12 6-24 13-36 19-27 13-61 3-76-23-101-183-200-360-295-531-92-167-182-328-269-484-11-21 3-43 32-48z"/>
    <path class="fil1" d="m18269 6944c34-15 117-56 161-114 56-73 52-98 52-98l-193 35-51-43 14-41 184-38s-75-62-161-78c-81-16-185 2-225 89v-1s-20 42-23 70c-3 27-17 86-43 133-22 39-46 84-106 143l-16-16-7 6-204-211c-54-175 209-127 322-113-274-263-569-138-715 165-36 44-114 9-158 100 25 70 133 139 194 161 77-45 60-127 79-186 58-48 104-32 159 7l218 177-6 6 10 11c-160 132-460 375-495 403-43 35-118 101-36 185 83 84 161 32 186 7 18-17 295-284 471-452l450 512 166-160-486-474c6-6 11-11 13-12 24-20 63-66 165-96l112 14 2-9-33-82z"/>
    <path class="fil2" d="m24259 7047c14 0 26-6 36-18 9-13 13-28 13-45 0-21-10-68-29-142-8-28-14-54-20-79-78 18-147 59-199 116 10 10 20 21 30 33 79 90 135 135 169 135zm-27-448c-1-7-1-14-1-20 0-33 9-61 27-84 19-22 47-34 85-34s66 11 84 34c19 22 28 50 28 85v18c119 24 225 86 303 173 32-19 60-28 84-28 29 0 55 10 76 30 20 21 31 46 31 77 0 22-5 41-15 58s-31 35-62 54l-1 1c20 56 31 117 31 180 0 60-10 118-28 172 54 30 81 69 81 116 0 30-11 55-32 76s-46 31-74 31c-27 0-56-8-89-25-78 88-185 151-305 175-1 43-10 76-30 100-19 25-46 37-80 37-35 0-62-12-82-37-19-24-29-58-29-100-120-25-227-89-305-178-31 19-61 28-88 28s-51-10-71-31-30-48-30-79c0-23 7-44 20-62 11-14 31-29 59-45-18-56-29-116-29-178 0-61 10-119 28-174-54-31-81-68-81-109 0-27 9-53 26-76 18-24 42-36 74-36 30 0 61 9 94 26 78-87 182-150 301-175zm194 162c-7 26-14 52-22 81-21 74-32 120-32 140 0 19 5 35 15 47s21 18 34 18c17 0 38-9 62-27s61-53 110-105c13-14 25-27 37-39-54-57-125-98-204-115zm292 265c-23 6-49 13-80 21-77 20-125 36-144 49-18 14-27 29-27 46 0 16 7 31 21 44 15 13 57 27 126 42 39 9 74 18 106 27 10-35 16-73 16-112 0-41-6-80-18-117zm-87 384c-20-19-42-41-65-65-44-44-74-73-91-85-18-12-34-18-50-18-28 0-41 16-41 46 0 26 11 85 34 177 5 20 10 40 14 59 78-18 146-58 199-114zm-374 113c9-39 21-90 36-151 8-32 13-57 13-76 0-34-14-51-40-51-18 0-38 8-61 25-22 17-63 54-124 112l-24 23c52 58 122 100 200 118zm-283-263l19-6c64-19 109-32 134-38 67-17 101-40 101-68 0-21-10-38-30-51-21-12-60-25-120-37-37-8-72-18-106-28-10 35-16 73-16 111 0 41 6 80 18 117z"/>
     <ellipse class="fil1" cx="28715" cy="6855" rx="359" ry="400"/>
     <polygon class="fil1" points="28363 7232 28376 7232 28384 7234 28392 7237 28400 7241 28407 7246 28416 7253 28424 7262 28433 7274 28442 7287 28451 7302 28459 7320 28468 7338 28476 7358 28484 7380 28491 7402 28498 7424 28505 7448 28512 7471 28519 7494 28526 7518 28532 7541 28539 7564 28547 7586 28554 7608 28563 7629 28573 7651 28584 7671 28599 7692 28618 7713 28643 7732 28675 7745 28711 7750 28748 7745 28780 7731 28806 7712 28824 7691 28838 7670 28850 7649 28860 7627 28868 7606 28876 7583 28883 7561 28890 7538 28897 7515 28904 7491 28911 7467 28918 7444 28925 7421 28933 7398 28941 7376 28949 7355 28958 7335 28967 7317 28977 7300 28986 7285 28996 7272 29006 7261 29015 7252 29024 7246 29034 7240 29043 7236 29054 7233 29066 7232 29084 7231 29096 7232 29106 7233 29116 7234 29126 7236 29135 7238 29145 7240 29154 7243 29162 7247 29171 7250 29179 7254 29187 7259 29194 7263 29201 7268 29208 7273 29215 7279 29221 7284 29227 7290 29232 7296 29237 7302 29242 7308 29246 7314 29250 7320 29254 7325 29257 7331 29259 7336 29261 7342 29263 7346 29264 7351 29265 7354 29266 7358 29266 7360 29266 7364 29266 7759 29266 7768 29265 7775 29263 7782 29261 7788 29258 7794 29254 7800 29250 7805 29245 7810 29239 7815 29233 7820 29227 7823 29220 7826 29213 7829 29206 7831 29198 7832 29188 7832 28234 7832 28224 7832 28217 7831 28209 7829 28202 7826 28195 7823 28189 7820 28183 7815 28178 7810 28173 7805 28169 7800 28165 7794 28162 7788 28160 7782 28158 7775 28157 7768 28156 7759 28156 7364 28156 7361 28157 7360 28157 7357 28158 7354 28159 7350 28161 7346 28163 7341 28166 7336 28170 7330 28174 7324 28178 7318 28183 7312 28189 7306 28195 7300 28201 7294 28208 7288 28215 7282 28223 7276 28231 7271 28240 7266 28249 7261 28258 7256 28267 7252 28277 7248 28287 7244 28298 7241 28308 7238 28319 7236 28330 7234 28342 7233 28353 7232"/>
     <path class="fil1" d="m22385 6912c28 2 54 8 80 16l26-46c25-43 81-58 125-33 43 25 59 81 33 125l-33 58c14 17 26 35 37 55l69-19c48-13 99 16 112 65 13 48-16 98-65 111l-78 21c-1 19-4 38-9 56l71 41c44 25 59 82 34 125s-81 59-125 33l-70-40c-14 13-29 25-45 36l21 77c13 48-16 99-65 112-48 13-98-16-111-65l-18-67c-23 1-46 0-68-4l-32 56c-25 43-82 58-125 33s-59-81-33-125l25-43c-21-18-40-39-55-62l-43 11c-48 13-99-16-112-65-12-48 16-98 65-111l33-9c-1-32 3-63 10-93l-28-16c-43-25-58-81-33-125 25-43 81-58 125-33l28 16c22-21 48-39 75-54l-9-35c-13-48 16-99 65-112 48-12 98 17 111 65l12 45zm-41 196c80-21 162 27 184 107 21 80-27 162-107 184-80 21-162-26-184-107-21-80 26-162 107-184z"/>
     <path class="fil1" d="m21813 7049c-16 3-32 4-48 3l-8 31c-8 29-38 46-67 38s-47-38-39-67l10-38c-10-8-20-17-29-27l-37 22c-27 15-60 6-75-20s-6-60 20-75l42-24c-2-11-4-22-4-34l-47-12c-30-8-47-38-39-67s38-47 67-39l47 13c6-10 13-20 20-28l-24-42c-15-26-6-59 20-74s60-6 75 20l21 35c13-4 26-6 40-8l10-37c7-29 37-46 67-38 29 8 46 38 38 67l-8 29c15 7 29 16 42 27l23-13c26-15 59-6 74 20s6 60-20 75l-18 10c6 18 9 37 9 55l19 5c29 8 46 38 38 67-7 29-38 47-67 39l-19-5c-9 16-21 30-35 43l11 19c15 26 6 59-20 74s-60 6-75-20l-14-24zm-6-120c-43 25-98 10-123-33s-10-98 33-123 98-10 123 33 10 98-33 123z"/>
    <path class="fil1" d="m32634 6598h885c26 0 47 21 47 47v529c0 26-21 47-47 47h-885c-26 0-47-21-47-47v-529c0-26 21-47 47-47zm-97-136h1079c38 0 69 31 69 69v773c0 38-31 69-69 69h-1079c-38 0-69-31-69-69v-773c0-38 31-69 69-69zm-33 981h1145c21 0 36 16 36 36v310c0 19-15 36-36 36h-1145c-21 0-36-17-36-36v-310c0-20 15-36 36-36zm744 108h296c17 0 31 13 31 30s-14 30-31 30h-296c-17 0-30-13-30-30s13-30 30-30z"/>
    <path class="fil1" d="m4721 6742c358 0 661 234 764 557l-271 198c-90-267-343-460-641-460-315 0-579 216-654 508v-1c0-443 359-802 802-802z"/>
     <path class="fil1" d="m30669 6452c103 0 192 64 237 158-121 64-204 201-204 360 0 26 2 52 7 76-13 3-26 4-40 4-148 0-268-134-268-299s120-299 268-299z"/>
     <path class="fil1" d="m30407 7008l12 1 9 2 9 3 9 5 8 5 8 7 8 9 8 10 7 11 8 13 7 14 6 15 7 15 6 17 5 17 6 17 5 18 5 17 5 18 5 17 5 17 5 17 5 15c-40 37-63 81-63 117v100h-192l-10-1-8-1-8-2-7-3-7-3-7-4-6-5-6-5-5-5-4-6-4-6-4-7-2-7-2-7-1-8-1-8v-300l1-3v-3l1-4 2-5 2-4 2-5 3-5 3-5 3-5 4-6 5-5 5-5 5-6 5-5 6-5 6-5 7-5 7-4 7-5 8-4 7-4 8-4 9-3 8-3 9-3 9-2 9-2 9-2 10-1h10l9-1z"/>
     <ellipse class="fil1" cx="31061" cy="6970" rx="308" ry="343"/>
     <polygon class="fil1" points="30760 7266 30774 7267 30785 7269 30795 7273 30805 7278 30814 7284 30823 7292 30832 7302 30841 7313 30850 7326 30858 7341 30866 7357 30874 7374 30881 7392 30888 7411 30895 7430 30901 7450 30907 7470 30913 7491 30919 7511 30925 7531 30930 7550 30936 7569 30942 7588 30949 7606 30956 7623 30963 7640 30972 7655 30983 7671 30996 7685 31013 7698 31034 7707 31058 7710 31081 7707 31103 7697 31120 7684 31133 7669 31143 7654 31152 7638 31159 7621 31166 7604 31173 7586 31179 7567 31185 7548 31190 7528 31196 7508 31202 7487 31208 7467 31215 7447 31222 7427 31229 7407 31236 7388 31244 7370 31252 7353 31261 7338 31270 7323 31280 7311 31290 7300 31300 7290 31310 7282 31321 7276 31333 7271 31345 7268 31359 7266 31377 7266 31388 7266 31398 7267 31408 7268 31418 7270 31427 7272 31436 7275 31445 7278 31454 7281 31462 7285 31470 7289 31478 7293 31486 7298 31493 7302 31500 7308 31506 7313 31512 7319 31518 7324 31524 7330 31529 7336 31534 7342 31538 7348 31542 7354 31546 7360 31549 7366 31551 7372 31554 7377 31556 7383 31557 7388 31558 7393 31559 7397 31560 7401 31560 7406 31560 7745 31559 7756 31558 7764 31556 7772 31553 7780 31549 7788 31544 7795 31539 7802 31533 7808 31527 7814 31519 7819 31512 7824 31504 7828 31495 7831 31486 7833 31477 7834 31466 7835 30649 7835 30638 7834 30629 7833 30620 7831 30611 7828 30603 7824 30595 7819 30588 7814 30582 7808 30576 7802 30571 7795 30566 7788 30562 7780 30559 7772 30557 7764 30556 7756 30555 7745 30555 7406 30555 7402 30556 7398 30557 7394 30558 7390 30559 7385 30562 7380 30564 7374 30567 7369 30571 7363 30575 7357 30580 7351 30585 7345 30590 7338 30596 7332 30602 7326 30609 7320 30616 7315 30624 7309 30632 7304 30640 7299 30648 7294 30657 7290 30667 7285 30676 7281 30686 7278 30696 7275 30706 7272 30717 7270 30727 7268 30738 7267 30750 7266"/>
     <path class="fil2" d="m35920 7143c0 183-74 348-194 467-119 120-284 194-467 194-182 0-347-74-467-194-119-119-193-284-193-467 0-182 74-347 193-467 120-119 285-193 467-193 183 0 348 74 467 193 120 120 194 285 194 467zm-249 412c105-105 171-251 171-412s-66-306-171-412c-105-105-251-170-412-170s-306 65-412 170c-105 106-170 251-170 412s65 307 170 412c106 105 251 171 412 171s307-66 412-171z"/>
     <path class="fil2" d="m35218 7078v-441h59v438c18 7 32 21 40 39h345v59h-346c-12 24-37 41-65 41-40 0-72-32-72-72 0-28 16-53 39-64z"/>
     <path class="fil2" d="m35259 6575c157 0 299 64 402 166 103 103 167 245 167 402s-64 299-167 402-245 167-402 167-299-64-402-167c-102-103-166-245-166-402s64-299 166-402c103-102 245-166 402-166zm381 188c-97-98-232-158-381-158-148 0-283 60-380 158-98 97-158 232-158 380 0 149 60 284 158 381 97 97 232 158 380 158 149 0 284-61 381-158s158-232 158-381c0-148-61-283-158-380z"/>
    <polygon class="fil1" points="27078 17527 26263 18025 26263 17527 25983 17527 25983 18195 25979 18197 25983 18199 25983 18867 26263 18867 26263 18370 27078 18867"/>
    <path class="fil1" d="m6892 17540c32 0 58 26 58 57v1200c0 32-26 58-58 58l-369-397h-339c-21 0-39-17-39-38v-453c0-21 18-38 39-38h346l362-389zm732 589v137c0 8-6 15-14 15h-506c-8 0-15-7-15-15v-137c0-8 7-15 15-15h506c8 0 14 7 14 15z"/>
    <path class="fil1" d="m10776 17723c262-261 686-261 948 0 262 262 262 687 0 948-262 262-686 262-948 0-261-262-261-686 0-948zm693 57c20 0 36 17 36 37v761c0 20-16 36-36 36l-234-251h-216c-13 0-24-11-24-25v-286c0-14 11-25 24-25h220l230-247zm-610-17l236 236h-87l-192-192c-207 229-200 583 21 803 221 221 575 228 804 22l-93-94v-87l136 137c207-229 200-583-21-804s-574-228-804-21z"/>
     <path class="fil1" d="m9100 17540c32 0 58 26 58 57v1200c0 32-26 58-58 58l-369-397h-339c-21 0-39-17-39-38v-453c0-21 18-38 39-38h346l362-389z"/>
     <path class="fil1" d="m9445 17930h137c9 0 15 6 15 14v170h170c8 0 14 7 14 15v137c0 8-6 15-14 15h-170v169c0 8-6 15-15 15h-137c-8 0-14-7-14-15v-169h-170c-8 0-15-7-15-15v-137c0-8 7-15 15-15h170v-170c0-8 6-14 14-14z"/>
    <path class="fil1" d="m13237 17527l890 670-890 670v-324l460-346-460-346v-324zm-499 0l890 670-890 670v-1340z"/>
    <polygon class="fil1" points="19431 17527 20530 18197 19431 18867"/>
    <polygon class="fil1" points="15066 17527 15881 18025 15881 17527 16161 17527 16161 18195 16165 18197 16161 18199 16161 18867 15881 18867 15881 18370 15066 18867"/>
     <rect class="fil1" x="17317" y="17527" width="407" height="1340"/>
     <rect class="fil1" x="17872" y="17527" width="407" height="1340"/>
    <rect class="fil1" x="23676" y="17527" width="1340" height="1340"/>
    <path class="fil1" d="m29406 17527l-890 670 890 670v-1340zm-499 0l-890 670 890 670v-324l-460-346 460-346v-324z"/>
    <path class="fil1" d="m22163 17527c370 0 670 300 670 670s-300 670-670 670-670-300-670-670 300-670 670-670zm0 374c164 0 297 133 297 296 0 164-133 297-297 297-163 0-296-133-296-297 0-163 133-296 296-296z"/>
    <path class="fil1" d="m32406 18856v-329h1341v329h-1341zm1-430l670-887 670 887h-1340z"/>
     <path class="fil1" d="m4777 17554c32 0 59 27 59 59v1224c0 32-27 58-59 58l-376-404h-346c-22 0-39-18-39-40v-461c0-21 17-39 39-39h353l369-397z"/>
     <path class="fil2" d="m5055 17751c30 69 53 142 69 216 15 74 23 149 23 225 0 80-9 161-26 239-18 79-44 156-79 229-10 22-52 38-74 23-11-8-17-24-18-41v-6c0-6 1-12 3-18 21-67 37-136 47-208 11-71 16-144 16-218 0-70-5-138-14-205-9-68-23-133-42-197-7-24 1-53 17-64 22-15 67 1 78 25z"/>
     <path class="fil2" d="m5138 17507c21-16 59-4 72 17 58 102 103 210 133 322 30 113 46 229 46 346s-16 233-46 345-75 221-133 322c-13 22-51 34-72 18-20-15-23-45-14-66 41-94 72-194 93-299 21-104 32-211 32-320s-11-217-32-321-52-205-93-298c-9-22-5-52 14-66z"/>
    <path class="fil1" d="m30223 17527h129v1340h-129v-1340zm243 0l176 108v1125l-176 107v-1340zm304 186l794 484-794 485v-969z"/>
     <path class="fil1" d="m35259 17570c-126 0-229 103-229 229v505c0 85 46 159 115 199v247c0 41 34 75 75 75h78c42 0 75-34 75-75v-247c69-40 116-114 116-199v-505c0-126-104-229-230-229z"/>
       <path class="fil2" d="m35792 17766c-22 50-39 102-50 156s-17 108-17 163c0 58 6 116 19 173s32 112 57 165c8 17 38 28 54 17 8-6 12-17 13-30v-4c0-4-1-9-2-13-15-48-27-99-35-150-7-52-11-105-11-158 0-50 3-100 10-149 7-48 17-96 30-142 5-18 0-38-12-46-16-11-48 0-56 18z"/>
       <path class="fil2" d="m35732 17589c-15-12-43-3-52 13-43 73-75 152-97 233-21 81-33 165-33 250 0 84 12 169 33 250 22 81 54 159 97 233 9 15 37 24 52 13 14-11 16-33 10-48-30-68-52-141-68-216-15-76-23-153-23-232s8-157 23-232c16-76 38-148 68-216 6-16 4-38-10-48z"/>
       <path class="fil2" d="m34726 17766c23 50 39 102 51 156 11 54 17 108 17 163 0 58-7 116-20 173s-31 112-56 165c-8 17-38 28-54 17-8-6-13-17-13-30v-4c0-4 1-9 2-13 15-48 26-99 34-150 8-52 12-105 12-158 0-50-4-100-11-149-6-48-16-96-30-142-5-18 0-38 12-46 16-11 49 0 56 18z"/>
       <path class="fil2" d="m34787 17589c15-12 43-3 52 13 42 73 74 152 96 233s33 165 33 250c0 84-11 169-33 250s-54 159-96 233c-9 15-37 24-52 13-14-11-17-33-10-48 29-68 52-141 67-216 15-76 23-153 23-232s-8-157-23-232c-15-76-38-148-67-216-7-16-4-38 10-48z"/>
     <path class="fil1" d="m25970 8758h658v215h199v51h-665v749h-192v-1015zm702 0l147 174h-147v-174z"/>
     <path class="fil1" d="m26230 9091h658v216h200v799h-858v-1015zm702 0l147 174h-147v-174z"/>
     <rect class="fil1" x="26367" y="9344" width="585" height="632"/>
      <rect class="fil1" x="26438" y="9418" width="253.72" height="30.754"/>
      <rect class="fil1" x="26438" y="9506" width="443.46" height="30.754"/>
      <rect class="fil1" x="26438" y="9595" width="443.46" height="30.754"/>
      <rect class="fil1" x="26438" y="9684" width="443.46" height="30.754"/>
      <rect class="fil1" x="26438" y="9773" width="443.46" height="30.754"/>
      <rect class="fil1" x="26438" y="9862" width="443.46" height="30.754"/>
    <path class="fil1" d="m7162 8833h155c21 0 39 18 39 39v259l301 206c15 10 19 30 9 45-10 14-30 18-45 8l-736-505-737 505c-14 10-34 7-44-9-10-14-6-34 8-44l748-512c5-7 14-11 23-11 10-1 20 3 27 11l212 145v-98c0-21 18-39 40-39zm-826 502l547-379 547 379v630c0 47-38 85-85 85h-315v-538h-277v538h-332c-47 0-85-38-85-85v-630z"/>
     <polygon class="fil1" points="11664 9017 11824 9206 11664 9206"/>
     <path class="fil1" d="m10902 9017h715v234h216v866h-931v-1100zm500 373c13 0 24 11 24 24v502c0 14-11 25-24 25l-154-167h-142c-9 0-16-7-16-16v-189c0-9 7-16 16-16h145l151-163zm114 81c13 28 22 58 29 88 6 31 9 62 9 93 0 33-3 66-11 98-7 32-18 64-32 94-4 9-22 16-30 9-5-3-8-10-8-17v-2c0-2 1-5 1-7 9-28 15-56 20-86 4-29 6-59 6-89 0-29-2-57-6-84-3-28-9-55-17-81-3-10 0-22 7-26 9-6 28 0 32 10zm34-101c9-6 24-1 30 8 24 42 42 86 54 132 13 46 19 94 19 142s-6 96-19 142c-12 46-30 90-54 132-6 9-21 14-30 7-8-6-9-18-5-27 16-39 29-80 38-123 8-42 13-87 13-131 0-45-5-89-13-132-9-43-22-84-38-122-4-9-3-22 5-28z"/>
     <path class="fil1" d="m10711 8746h399c23 0 43 20 43 44v69h353c24 0 43 19 43 43v36h-652c-29 0-59 24-68 53v441l-126-1c-20-3-36-21-36-43v-598c0-24 20-44 44-44z"/>
    <path class="fil1" d="m8485 8742h894v293h271v1087h-1165v-1380zm954 1l200 236h-200v-236zm-271 917l-10 7-12 9-12 5-12 5-12 4-14 3-13 2-14 1-15-1-14-2-12-3-13-4-12-5-12-5-11-9-11-7h-289l11 31 13 31 14 29 17 27 19 26 22 24 22 22 26 20 25 19 28 17 28 13 31 12 31 11 34 7 32 3 34 2 35-2 34-3 32-7 31-11 30-12 29-13 28-17 27-19 24-20 24-22 20-24 19-26 17-27 15-29 12-31 10-31h-286zm-203-218l10-8 12-9 12-6 14-6 13-3 14-3 14-4h29l15 4 14 3 13 3 12 6 12 6 12 9 10 8h283l-10-32-12-29-15-29-17-27-19-26-22-24-22-22-24-20-27-19-28-17-29-14-30-12-31-8-32-7-34-5-35-2-34 2-32 5-32 7-33 8-29 12-29 14-29 17-25 19-24 20-24 22-21 24-18 26-17 27-16 29-12 29-10 32h283zm-155-150l9-8 13-12 19-12 22-14 22-13 19-9 14-5h5l2 2 63 153 1 5v5l-1 5h-4l-7 4-15 10-15 12-7 7-4 2-3 3-3-2-7-3-123-116-2-3v-7l2-4zm223-99l-3-1-5-2h-10l-11 2-6 1-6 2-1 2v3l37 174 12-1h5l5 1-13-170-2-5-2-6z"/>
    <path class="fil1" d="m12850 8742h895v293h271v1087h-1166v-1380zm955 1l199 236h-199v-236zm-839 526h712v50h-712v-50zm0 126h795v50h-795v-50zm0 126h687v50h-687v-50zm0 126h828v50h-828v-50zm0 126h693v50h-693v-50z"/>
    <path class="fil1" d="m19398 8742h895v293h271v1087h-1166v-1380zm955 1l199 236h-199v-236zm-705 831l36-36c18-18 47-18 65 0l159 158 304-304c18-18 47-18 65 0l37 36c17 18 17 47 0 65l-374 374-1 1h-1l-1 1v1l-1 1h-1l-1 1h-1l-1 1-1 1h-1l-1 1h-1l-1 1h-1l-1 1h-2l-1 1h-2l-1 1h-4l-1 1h-13l-1-1h-3l-1-1h-2l-1-1h-3l-1-1h-1c-4-2-9-5-13-9l-227-228c-18-18-18-47 0-65z"/>
    <path class="fil1" d="m15032 8742h895v293h271v1087h-1166v-1380zm955 1l200 236h-200v-236z"/>
    <path class="fil1" d="m17215 8742h895v293h271v1087h-1166v-1380zm955 1l200 236h-200v-236zm-272 639h90c18 0 33 15 33 33v543c0 18-15 33-33 33h-90c-19 0-33-15-33-33v-543c0-18 14-33 33-33zm-485-90h90c18 0 33 14 33 33v633c0 18-15 33-33 33h-90c-19 0-33-15-33-33v-633c0-19 14-33 33-33zm242-124h90c19 0 33 15 33 33v757c0 18-14 33-33 33h-90c-18 0-33-15-33-33v-757c0-18 15-33 33-33z"/>
    <path class="fil1" d="m23906 9506c77 81-109 178-188 126-88-88 105-208 188-126zm635-912l-180 825 825-180-260 256-591 135-40 40c30 9 58 26 82 50 100 100 102 290 6 426-96 135-255 164-355 64-100-99-103-290-6-425 28-41 63-71 99-92l-38-38c-21 36-52 70-92 99-135 96-326 94-425-6-100-100-71-259 64-355s326-94 426 6c28 28 46 60 54 95l38-38 136-602 257-260zm-271 1276c-81-77-178 109-127 187 89 89 209-104 127-187z"/>
     <path class="fil2" d="m29372 9432c0 182-74 347-194 467-119 119-284 193-467 193-182 0-347-74-467-193-119-120-193-285-193-467s74-348 193-467c120-120 285-194 467-194 183 0 348 74 467 194 120 119 194 285 194 467zm-249 412c105-106 171-251 171-412s-66-307-171-412-251-170-412-170-306 65-412 170c-105 105-170 251-170 412s65 306 170 412c106 105 251 170 412 170s307-65 412-170z"/>
     <circle class="fil1" cx="28711" cy="9432" r="487"/>
     <path class="fil2" d="m28668 9444l-239-239 32-31 238 237c13-6 28-6 42-1l187-187 32 32-188 188c7 19 3 42-13 57-21 22-56 22-78 0-15-15-19-37-13-56z"/>
     <path class="fil1" d="m21604 8758h659v215h199v82h-629v718h-229v-1015zm703 0l147 174h-147v-174z"/>
     <path class="fil1" d="m21865 9091h658v216h199v799h-857v-1015zm702 0l147 174h-147v-174z"/>
      <rect class="fil1" x="22069" y="9418" width="269.68" height="30.754"/>
      <rect class="fil1" x="22069" y="9506" width="471.36" height="30.754"/>
      <rect class="fil1" x="22069" y="9595" width="471.36" height="30.754"/>
      <rect class="fil1" x="22069" y="9684" width="471.36" height="30.754"/>
      <rect class="fil1" x="22069" y="9773" width="471.36" height="30.754"/>
      <rect class="fil1" x="22069" y="9862" width="471.36" height="30.754"/>
    <path class="fil1" d="m32930 8745c292 0 530 237 530 529 0 93-24 180-67 256 5 4 10 8 14 12l297 298c64 63 64 167 0 231-63 63-167 63-231 0l-297-297c-7-7-13-14-18-22-69 33-146 52-228 52-292 0-529-238-529-530s237-529 529-529zm0 204c180 0 326 146 326 325 0 180-146 326-326 326-179 0-325-146-325-326 0-179 146-325 325-325zm-184 255h116v-115c0-37 30-67 66-67 37 0 67 30 67 67v115h116c36 0 66 30 66 67s-30 67-66 67h-116v115c0 37-30 67-67 67-36 0-66-30-66-67v-115h-116c-36 0-66-30-67-67 1-37 31-67 67-67z"/>
     <polygon class="fil2" points="4487 9145 4487 9037 5139 9037 5139 9827 4498 9827 4498 9741 4390 9741 4390 9881 4390 9925 4444 9925 5193 9925 5247 9925 5247 9881 5247 8993 5247 8939 5193 8939 4433 8939 4379 8939 4379 8993 4379 9145"/>
     <polygon class="fil1" points="5004 9432 4813 9608 4623 9784 4623 9568 4157 9568 4157 9284 4623 9284 4623 9080 4813 9256"/>
    <path class="fil1" d="m30287 8825c83-83 220-83 303 0l304 304 303-304c84-84 220-83 304 0 83 83 83 220 0 303l-304 304 304 303c83 84 83 220 0 304-84 83-220 83-304 0l-303-304-304 304c-83 83-220 83-303 0-83-84-83-220 0-304l304-303-304-304c-83-83-83-220 0-303z"/>
    <path class="fil1" d="m35113 8745c292 0 529 237 529 529 0 93-24 180-66 256 5 4 9 8 14 12l297 298c64 63 64 167 0 231-64 63-168 63-231 0l-298-297c-6-7-12-14-18-22-69 33-146 52-227 52-292 0-529-238-529-530s237-529 529-529zm0 204c180 0 325 146 325 325 0 180-145 326-325 326-179 0-325-146-325-326 0-179 146-325 325-325zm-188 255h364c37 0 67 30 67 67s-30 67-67 67h-364c-37 0-67-30-67-67s30-67 67-67z"/>
    <path class="fil2" d="m27168 13329c-66-66-147-98-242-97-149 2-277 83-382 244v-1l-26 48s-11-21-27-50v4c-39-80-89-139-149-179-60-39-127-58-199-58-95 1-178 32-249 91-71 60-105 137-105 230 1 32 11 79 30 140 36 91 129 209 282 355 152 146 258 255 317 327 60 71 99 169 117 292 15-108 71-217 170-325 99-109 212-229 340-361 127-132 198-233 212-304 8-25 11-58 11-100-1-104-35-190-100-256z"/>
     <path class="fil1" d="m6238 13570h500c30 0 54 24 54 54v87h227v99h-132c-67-31-126-48-165-11l-1 1c-3 3-6 6-9 10h-240c-37 0-75 30-85 66l-158 551c-25-4-45-27-45-53v-750c0-30 25-54 54-54z"/>
     <path class="fil1" d="m7552 14008l-129 451c-9 32-43 59-75 59h-1032c-32 0-51-27-42-59l154-538c9-32 43-59 75-59h184c-2 9-3 18-3 26 0 32 13 64 37 89l342 342c25 25 57 37 89 37s64-12 88-37l312-311zm-559-146h26v13c-9-4-18-8-26-13zm306 0h12l-12 6v-6z"/>
     <path class="fil1" d="m7559 13824c35 35 35 93 0 129l-343 342c-35 36-93 36-129 0l-342-342c-35-36-35-94 0-129 49-46 186 55 308 103v-477c0-33 27-60 60-60h92c33 0 60 27 60 60v471c116-49 239-139 294-97z"/>
     <path class="fil1" d="m10902 13538h715v234h216v867h-931v-1101zm762 1l160 188h-160v-188zm-365 321c164 0 297 133 297 297 0 65-21 126-57 175 7 27 18 50 41 57 29 9 77 0 159-41 13-6 28-1 35 12 6 13 0 28-12 34-96 47-156 56-197 44-34-11-53-34-65-63-53 49-123 79-201 79-164 0-297-133-297-297s133-297 297-297zm0 369c48 0 86 38 86 86 0 47-38 85-86 85-47 0-85-38-86-85 1-48 39-86 86-86zm0-326c48 0 86 39 86 86 0 48-38 86-86 86-47 0-86-38-85-86 0-47 38-86 85-86zm-77 249c0 47-38 86-86 86-47 0-85-39-85-86s38-86 85-86c48 0 86 39 86 86zm326 0c0 47-39 86-86 86s-86-39-86-86 39-86 86-86 86 39 86 86z"/>
     <path class="fil1" d="m10711 13268h399c23 0 43 20 43 44v69h353c24 0 43 19 43 43v36h-652c-29 0-59 24-68 53v440h-126c-20-3-36-21-36-43v-598c0-24 20-44 44-44z"/>
    <path class="fil1" d="m8570 13525h499c30 0 54 24 54 54v87h442c30 0 54 24 54 54v45h-816c-36 0-74 30-85 66l-157 552c-26-5-46-27-46-54v-750c0-30 25-54 55-54z"/>
    <path class="fil1" d="m9719 13685l-154 538c-9 32-43 58-75 58h-1032c-32 0-51-26-42-58l154-538c9-33 43-59 75-59h1032c32 0 51 27 42 59z"/>
     <path class="fil1" d="m13433 13406c187 0 340 152 340 340 0 103-46 195-119 258h-443c-72-63-118-155-118-258 0-188 152-340 340-340z"/>
     <path class="fil1" d="m13634 14028c1 5 2 9 2 14v41l-406 57v-98c0-5 0-9 1-14h403zm2 89v80l-406 57v-80l406-57zm0 115v79l-406 58v-80l406-57zm0 114v73c0 46-45 83-100 83h-207c-55 0-99-37-99-83v-16l406-57z"/>
     <path class="fil1" d="m19981 13214c408 0 740 331 740 740 0 408-332 740-740 740-409 0-740-332-740-740 0-409 331-740 740-740zm0 66c372 0 674 301 674 674 0 372-302 674-674 674-373 0-674-302-674-674 0-373 301-674 674-674z"/>
     <path class="fil1" d="m20421 14171v269c129-133 223-281 222-474-8-34-28-43-61-26-5 27-25 34-60 20-20-66-84-78-150-88 34-29 86-56 113 10 37 11 53-12 90 11 21 2 41 1 62 3-32-291-70-174-237-231-68-85-84-25-77 126-41 13-94 50-34 121-170 140-85 306 132 259z"/>
     <polygon class="fil1" points="19696 14398 19692 14405 19689 14412 19686 14419 19683 14426 19680 14434 19677 14441 19675 14448 19673 14455 19671 14462 19669 14469 19668 14477 19667 14484 19666 14491 19666 14499 19666 14506 19667 14514 19668 14522 19670 14530 19670 14532 19675 14531 19686 14531 19696 14534 19704 14540 19711 14546 19717 14552 19724 14559 19729 14565 19735 14570 19740 14573 19743 14575 19746 14575 19749 14575 19752 14572 19758 14566 19768 14552 19779 14539 19790 14525 19801 14513 19812 14500 19824 14488 19835 14477 19847 14465 19858 14454 19870 14443 19881 14433 19892 14422 19904 14412 19914 14402 19925 14393 19936 14383 19946 14373 19955 14364 19965 14354 19974 14345 19982 14336 19990 14327 19998 14317 20005 14308 20011 14299 20017 14289 20022 14280 20026 14271 20030 14261 20033 14251 20035 14242 20036 14231 20037 14224 20037 14218 20035 14212 20033 14207 20030 14203 20027 14198 20022 14194 20016 14191 20009 14187 20001 14184 19992 14181 19981 14179 19970 14177 19959 14175 19946 14174 19926 14174 19919 14161 19914 14155 19910 14148 19905 14141 19900 14135 19895 14128 19890 14122 19884 14115 19878 14109 19872 14103 19866 14097 19859 14091 19852 14085 19845 14080 19838 14075 19831 14070 19823 14066 19815 14061 19807 14057 19799 14054 19790 14051 19781 14048 19772 14045 19762 14043 19753 14042 19743 14041 19732 14040 19722 14040 19711 14040 19700 14041 19689 14043 19673 14046 19655 14036 19641 14028 19628 14019 19615 14010 19603 14000 19591 13991 19580 13981 19570 13971 19560 13962 19552 13953 19544 13943 19537 13935 19530 13927 19525 13919 19521 13912 19519 13905 19517 13898 19519 13889 19525 13883 19532 13880 19540 13878 19548 13877 19558 13877 19569 13878 19580 13880 19593 13883 19607 13887 19621 13893 19636 13900 19653 13908 19669 13918 19680 13925 19682 13924 19687 13918 19691 13912 19694 13903 19695 13893 19697 13882 19698 13869 19699 13856 19702 13843 19706 13830 19713 13816 19723 13804 19736 13793 19752 13783 19773 13776 19794 13772 19804 13763 19817 13752 19831 13742 19844 13733 19858 13725 19871 13717 19883 13710 19894 13703 19904 13697 19912 13691 19919 13685 19923 13681 19925 13678 19925 13676 19925 13675 19923 13673 19917 13670 19907 13665 19899 13659 19890 13652 19882 13645 19875 13637 19868 13629 19861 13621 19855 13612 19849 13603 19844 13594 19839 13585 19835 13576 19831 13567 19827 13558 19825 13549 19822 13540 19820 13532 19819 13524 19818 13516 19818 13508 19819 13500 19820 13493 19822 13487 19825 13480 19829 13475 19834 13470 19840 13466 19847 13464 19855 13464 19863 13465 19866 13466 19867 13465 19867 13464 19864 13459 19859 13453 19853 13446 19845 13439 19835 13432 19825 13426 19814 13420 19802 13416 19791 13413 19780 13412 19770 13413 19766 13414 19763 13422 19758 13436 19754 13449 19751 13462 19748 13475 19745 13487 19743 13499 19741 13511 19740 13523 19739 13534 19738 13545 19737 13555 19736 13565 19735 13575 19735 13584 19734 13593 19734 13602 19733 13610 19733 13618 19732 13625 19731 13633 19730 13639 19728 13645 19726 13651 19723 13657 19720 13662 19716 13667 19711 13671 19705 13673 19699 13675 19692 13676 19682 13675 19659 13659 19640 13646 19625 13634 19612 13622 19601 13611 19592 13601 19586 13591 19581 13580 19579 13570 19578 13561 19580 13551 19583 13543 19588 13535 19593 13527 19599 13520 19606 13514 19613 13507 19620 13501 19627 13494 19634 13487 19641 13480 19648 13473 19654 13465 19660 13457 19665 13448 19669 13439 19672 13429 19674 13418 19675 13407 19674 13394 19672 13380 19672 13380 19667 13382 19659 13387 19649 13393 19639 13399 19628 13406 19615 13414 19603 13423 19589 13433 19575 13443 19561 13454 19547 13466 19532 13479 19517 13492 19502 13506 19488 13522 19473 13538 19459 13554 19445 13572 19431 13590 19419 13610 19406 13630 19395 13651 19384 13673 19374 13695 19366 13719 19358 13743 19352 13769 19346 13795 19343 13822 19341 13847 19344 13855 19349 13864 19356 13873 19363 13882 19370 13891 19379 13900 19388 13908 19398 13917 19409 13925 19420 13933 19431 13941 19443 13949 19455 13956 19467 13964 19480 13971 19493 13978 19505 13985 19518 13992 19531 13999 19543 14006 19556 14013 19568 14020 19580 14027 19592 14033 19603 14040 19614 14047 19624 14054 19634 14061 19643 14068 19651 14075 19659 14082 19672 14097 19659 14113 19654 14120 19649 14128 19645 14135 19641 14142 19639 14149 19637 14156 19635 14163 19634 14169 19634 14176 19634 14182 19635 14189 19636 14195 19637 14201 19639 14207 19642 14213 19645 14219 19648 14225 19652 14231 19656 14236 19660 14242 19665 14247 19670 14252 19675 14257 19681 14262 19687 14267 19693 14271 19700 14276 19706 14280 19713 14284 19720 14288 19735 14296 19731 14313 19728 14321 19726 14329 19723 14337 19720 14345 19717 14353 19713 14361 19710 14368 19706 14376 19703 14383 19699 14390"/>
     <path class="fil1" d="m19782 13326c170-27 323-20 462 28 57 145-176 166-235 259-96 3-36-242-185-245-28-1-54-24-42-42z"/>
    <path class="fil1" d="m15106 13444c281-281 737-281 1019 0 281 282 281 738 0 1019-282 281-738 281-1019 0s-281-737 0-1019zm208 104l707 708c148-199 132-480-48-660s-461-196-659-48zm603 811l-707-707c-148 198-132 480 48 659 180 180 461 196 659 48z"/>
     <path class="fil1" d="m18008 13310c251 0 456 204 456 455 0 207-138 382-327 437l-232-402-81 142v-221h-270c23-231 217-411 454-411z"/>
     <polygon class="fil1" points="17132 13767 17778 13767 17778 14021 17662 14222 17563 14394 17132 14394"/>
     <polygon class="fil1" points="17905 13892 18109 14245 18313 14598 17498 14598 17701 14245"/>
    <path class="fil1" d="m24169 13264h354c21 0 38 17 38 38v437h437c21 0 38 17 38 38v353c0 21-17 38-38 38h-437v437c0 21-17 38-38 38h-354c-21 0-38-17-38-38v-437h-437c-21 0-38-17-38-38v-353c0-21 17-38 38-38h437v-437c0-21 17-38 38-38z"/>
    <path class="fil2" d="m28283 14267l88 135 79 123c16 24 48 53 87 53h506c60 0 109-49 109-110v-832c0-63-119-63-119 0v301c-5 15-19 26-36 26-16 0-29-9-35-23v-449c0-60-111-64-119-6v454c-6 14-20 24-36 24-17 0-31-11-36-26l1-560c0-63-119-63-119 0v563c-6 14-20 23-35 23-18 0-33-11-37-27v-445c0-63-119-63-119 0v610h-1v41c-4 14-16 25-30 27h-13c-13-2-24-11-29-22v-186c0-64-119-64-119 0v233c0 50 6 62 13 73z"/>
     <path class="fil1" d="m22179 14527h-71l-54-78c0-14-1-29-1-43h253c-1 14-1 29-1 43l-55 78h-71z"/>
     <path class="fil1" d="m22177 14542h-73l-57-80c0-144-12-277-89-352-64-59-104-143-104-236 0-178 145-323 323-323s323 145 323 323c0 93-40 177-104 236-77 75-89 208-89 352l-57 80h-73zm-98-206h196c11-103 39-211 90-260 55-51 89-123 89-203 0-153-124-277-277-277s-277 124-277 277c0 80 34 152 88 203 51 49 80 157 91 260zm193 29h-191c1 9 1 18 2 27h188c0-9 1-18 1-27zm-2 56h-187v8l10 15h168l9-15v-8zm-25 53h-134l13 24h108l13-24z"/>
     <path class="fil1" d="m22638 13879h-84c-12 0-21-9-21-21 0-11 9-21 21-21h84c12 0 21 10 21 21 0 12-9 21-21 21z"/>
     <path class="fil1" d="m21773 13879h-84c-12 0-21-9-21-21 0-11 9-21 21-21h84c11 0 21 10 21 21 0 12-10 21-21 21z"/>
     <path class="fil1" d="m22514 13538l-60 59c-8 8-21 8-29 0-9-8-9-21 0-30l59-59c8-8 22-8 30 0s8 22 0 30z"/>
     <path class="fil1" d="m21902 14149l-59 60c-9 8-22 8-30 0s-8-22 0-30l59-59c8-8 22-8 30 0s8 21 0 29z"/>
     <path class="fil1" d="m22484 14209l-59-60c-9-8-9-21 0-29 8-8 21-8 29 0l60 59c8 8 8 22 0 30s-22 8-30 0z"/>
     <path class="fil1" d="m21872 13597l-59-59c-8-8-8-22 0-30s21-8 30 0l59 59c8 9 8 22 0 30s-22 8-30 0z"/>
     <path class="fil1" d="m22163 13471v-85c0-11 9-21 21-21 11 0 21 10 21 21v85c0 11-10 21-21 21-12 0-21-10-21-21z"/>
    <path class="fil2" d="m32933 13856h-230c-24 0-47 5-67 13-22 9-41 22-57 39h-1c-16 16-29 35-38 57-8 20-13 43-13 67s5 46 13 67c9 21 22 41 39 57 16 16 35 29 57 38 20 9 43 14 67 14h747c24 0 47-5 67-14 22-9 41-22 58-38 16-16 29-36 38-57s13-43 13-67-4-47-13-67c-8-19-19-37-32-52l-6-5c-17-17-36-30-58-39-20-9-43-13-67-13l-130-1h-24v-183h154c49 0 96 10 138 28 44 18 83 45 116 78l22 22h-1c24 29 43 60 58 95 17 42 27 88 27 137 0 48-10 95-27 137-18 44-45 84-78 117h-1c-33 33-72 60-116 78-42 18-88 27-136 27h-749c-49 0-95-9-137-27-44-18-84-45-117-78s-60-73-79-117c-17-42-27-89-27-137 0-49 10-95 27-137 19-44 46-84 79-117s73-60 117-79c42-17 88-27 137-27h247c-23-45-61-86-61-139 0-26 61-19 84 0 84 66 169 132 253 198 23 18 23 48 0 66-84 66-169 132-253 198-23 18-84 26-84 0 0-41 23-91 44-139z"/>
      <path class="fil1" d="m4059 13584h499c28 0 51 21 54 47l-89 90c-25 24-37 56-37 88 0 5 0 10 1 15h-195c-36 0-74 30-85 66l-157 551c-26-4-46-26-46-53v-750c0-30 25-54 55-54zm761 240h-2l2-1v1z"/>
      <path class="fil1" d="m5397 13935l-153 538c-10 32-44 59-76 59h-1032c-32 0-51-27-42-59l154-538c9-32 43-59 76-59h181c5 8 11 15 18 22v1c44 41 112 15 190-23h107v371c0 52 43 95 95 95h92c52 0 94-43 94-95v-371h91c75 37 142 61 189 25l2-1 2-2c2-2 4-4 5-6 9 10 12 26 7 43z"/>
      <path class="fil1" d="m5361 13874c35-36 35-94 0-129l-343-342c-35-36-93-36-129 0l-342 342c-36 35-36 93 0 129 49 46 185-55 307-103v476c0 34 28 61 61 61h92c33 0 60-27 60-61v-470c116 49 239 139 294 97z"/>
     <path class="fil1" d="m5361 13874c35-36 35-94 0-129l-343-342c-35-36-93-36-129 0l-342 342c-36 35-36 93 0 129 49 46 185-55 307-103v476c0 34 28 61 61 61h92c33 0 60-27 60-61v-470c116 49 239 139 294 97z"/>
    <path class="fil2" d="m30465 14210zm107-120c5 12 16 20 28 22h13c15-2 27-14 31-28v-650c0-33 27-45 55-47 30 0 64 8 64 47v449c6 13 20 23 36 23 17 0 31-11 36-27v-130c0-64 119-63 119 0v135c6 13 19 22 34 22 18 0 33-12 38-29v-77c8-57 118-54 118 7v77c6 13 20 22 35 22 18 0 32-12 37-27v-32c0-63 119-63 119 0v564c0 61-49 109-110 109h-506c-39 0-70-28-86-53l-79-122-89-135c-7-11-12-23-12-73v-233c0-64 119-64 119 0v186z"/>
     <path class="fil1" d="m34617 14275l360-379c35-38 97-38 136 0l193 182c39 38 43 99 7 137l-359 379c-36 38-97 38-137 0l-192-182c-40-38-43-99-8-137zm127 26l265-280c20-21 54-22 75-2l100 95c21 20 22 54 2 75l-265 280c-20 21-53 22-74 2l-101-95c-21-20-22-54-2-75z"/>
     <path class="fil1" d="m35205 13693l360-380c35-37 97-37 136 0l193 183c40 37 43 99 7 136l-359 380c-36 37-97 37-137-1l-192-182c-40-38-43-99-8-136zm127 25l265-279c20-21 54-22 75-2l100 95c21 20 22 54 2 75l-264 279c-20 21-54 22-75 2l-101-95c-21-20-22-54-2-75z"/>
     <rect class="fil1" transform="matrix(.1869 -.18305 .18305 .1869 34932 14163)" width="2985" height="545" rx="209" ry="209"/>
    <path class="fil1" d="m26329 4326c363 0 657 294 657 657 0 145-47 279-126 388 17 60 41 110 91 126 64 20 171 0 353-90 28-14 62-2 76 26 13 28 2 62-26 75-212 105-347 125-436 97-75-23-117-74-144-138-117 108-273 173-445 173-363 0-657-294-657-657s294-657 657-657zm0 817c105 0 190 85 190 190s-85 190-190 190-190-85-190-190 85-190 190-190zm0-721c105 0 190 85 190 190 0 104-85 189-190 189s-190-85-190-189c0-105 85-190 190-190zm-171 550c0 105-85 190-190 190-104 0-189-85-189-190s85-190 190-190c104 0 189 85 189 190zm722 0c0 105-85 190-190 190s-190-85-190-190 85-190 190-190 190 85 190 190z"/>
    <path class="fil2" d="m6940 4434l-657 657c-61 62-92 142-92 223s31 162 92 223c61 62 142 92 223 92 80 0 161-30 223-92l777-777c49-49 73-112 73-176 0-63-25-126-73-174v-1c-48-48-111-72-175-72-63 0-127 24-175 72l-601 601c-36 37-55 85-55 133s19 96 55 133c37 36 85 55 133 55v-1c48 0 97-18 133-54l492-492-69-69-492 492c-17 18-41 27-64 27v-1c-23 0-47-8-64-26-18-17-26-41-26-64s8-47 26-64l601-601c29-29 68-44 106-44 39 0 78 15 107 44s44 68 44 106c0 39-15 78-44 107l-778 778c-42 42-98 63-154 63s-112-21-155-63h1c-43-43-64-99-64-155s21-112 64-154l657-658-69-68z"/>
    <path class="fil2" d="m11202 4651h288c129 0 246 52 331 137h1c85 85 137 203 137 332s-52 246-137 331-203 138-332 138h-572v-225h572c67 0 128-28 173-72 44-44 71-105 71-172s-27-128-71-173c-44-44-106-71-173-71h-288v264l-331-190-330-191 330-191 331-191v274z"/>
    <path class="fil2" d="m9400 4935v288c0 129-53 246-138 331v1c-85 85-202 137-331 137s-247-52-332-137-137-203-137-332v-572h225v572c0 67 27 128 71 173 45 44 106 71 173 71s128-27 172-71 72-105 72-173v-288h-265l191-331 191-330 190 330 191 331h-273z"/>
    <path class="fil1" d="m13433 4432c389 0 704 211 704 471s-315 458-704 470c-84 71-73 126-336 161 61-46 139-84 126-177-287-56-495-241-495-454 0-263 316-471 705-471z"/>
    <path class="fil1" d="m19981 4432c-390 0-705 211-705 471 0 259 315 458 705 470 83 71 72 126 336 161-61-46-140-84-127-177 287-56 495-241 495-454 0-263-315-471-704-471zm-364 590h448v92h-448v-92zm0-175h714v92h-714v-92zm0-175h599v93h-599v-93z"/>
    <rect class="fil1" x="19681" y="4937" width="599.49" height="92.32"/>
    <rect class="fil1" x="19623" y="4937" width="714.78" height="92.32"/>
    <rect class="fil1" x="19757" y="4937" width="447.95" height="92.32"/>
    <path class="fil1" d="m15021 4405h1189c49 0 90 40 90 90v709c0 49-41 90-90 90h-503l-316 267 120-267h-490c-50 0-90-41-90-90v-709c0-50 40-90 90-90z"/>
    <path class="fil1" d="m17798 4432c-389 0-705 211-705 471s316 458 705 470c83 71 72 126 336 161-61-46-139-84-126-177 286-56 495-241 495-454 0-263-316-471-705-471z"/>
    <path class="fil1" d="m24940 4405h-1188c-50 0-91 40-91 90v709c0 49 41 90 91 90h502l316 267-119-267h489c50 0 91-41 91-90v-709c0-50-41-90-91-90zm-1008 179h599v92h-599v-92zm0 174h715v93h-715v-93zm0 175h448v92h-448v-92z"/>
    <path class="fil1" d="m28289 4299h844c45 0 81 37 81 81v1206c0 44-36 81-81 81h-844c-44 0-80-37-80-81v-1206c0-44 36-81 80-81zm70 106h704c29 0 53 23 53 52v161c0 29-24 53-53 53h-704c-29 0-52-24-52-53v-161c0-29 23-52 52-52zm-17 368h133c11 0 21 9 21 21v133c0 11-10 21-21 21h-133c-12 0-21-10-21-21v-133c0-12 9-21 21-21zm303 0h133c11 0 21 9 21 21v133c0 11-10 21-21 21h-133c-12 0-21-10-21-21v-133c0-12 9-21 21-21zm303 0h133c11 0 21 9 21 21v133c0 11-10 21-21 21h-133c-12 0-21-10-21-21v-133c0-12 9-21 21-21zm-606 292h133c11 0 21 10 21 21v134c0 11-10 21-21 21h-133c-12 0-21-10-21-21v-134c0-11 9-21 21-21zm303 0h133c11 0 21 10 21 21v134c0 11-10 21-21 21h-133c-12 0-21-10-21-21v-134c0-11 9-21 21-21zm303 0h133c11 0 21 10 21 21v134c0 11-10 21-21 21h-133c-12 0-21-10-21-21v-134c0-11 9-21 21-21zm-606 293h133c11 0 21 10 21 21v133c0 12-10 21-21 21h-133c-12 0-21-9-21-21v-133c0-11 9-21 21-21zm303 0h133c11 0 21 10 21 21v133c0 12-10 21-21 21h-133c-12 0-21-9-21-21v-133c0-11 9-21 21-21zm303 0h133c11 0 21 10 21 21v133c0 12-10 21-21 21h-133c-12 0-21-9-21-21v-133c0-11 9-21 21-21z"/>
    <path class="fil1" d="m22758 4405h-1189c-50 0-90 40-90 90v709c0 49 40 90 90 90h502l316 267-119-267h490c49 0 90-41 90-90v-709c0-50-41-90-90-90z"/>
     <polygon class="fil1" points="33516 5002 32870 5002 32791 4529 33737 4529"/>
     <path class="fil2" d="m32440 4439c-23-14-30-43-17-66 14-23 44-31 67-17 111 66 187 183 239 336 46 135 73 298 90 477h776c26 0 48 22 48 49s-22 48-48 48h-816c-27 2-50-17-52-44-16-190-43-361-90-499-45-131-107-231-197-284z"/>
     <circle class="fil1" cx="32817" cy="5481" r="137"/>
     <circle class="fil1" cx="33495" cy="5481" r="137"/>
    <polygon class="fil1" points="4702 4309 4982 4612 5262 4916 4918 4916 4918 5657 4467 5657 4467 4916 4142 4916 4422 4612"/>
    <path class="fil1" d="m30252 4411l70-69c40-41 107-41 147 0l425 424 425-424c40-41 107-41 147 0l69 69c41 40 41 107 0 147l-424 425 424 425c41 40 41 107 0 147l-69 70c-40 40-107 40-147 0l-425-425-425 425c-40 40-107 40-147 0l-70-70c-40-40-40-107 0-147l425-425-425-425c-40-40-40-107 0-147z"/>
    <path class="fil1" d="m35259 5602c-171 0-317-61-437-181-121-121-181-267-181-438s60-317 181-438c120-120 266-181 437-181s317 61 438 181c121 121 181 267 181 438s-60 317-181 438c-121 120-267 181-438 181zm0-825c23 0 43-8 59-24s24-35 24-58-8-43-24-59-36-24-59-24-42 8-58 24-24 36-24 59c0 22 8 41 24 58 17 16 36 24 58 24zm10 206l-20 1c-80 4-146 33-199 88s-79 122-79 200c0 81 28 150 85 206 57 55 128 83 212 83 155 0 289-57 401-171s168-250 168-407c0-161-54-295-161-403-107-107-246-165-417-174 95 12 167 42 216 91 49 50 74 115 74 198 0 78-27 145-80 199-53 55-120 85-200 89zm-10 371c-23 0-42-8-58-24s-24-35-24-58c0-22 8-42 24-58s35-24 58-24 43 8 59 24 24 36 24 58c0 23-8 43-24 59-16 15-36 23-59 23z"/>
   <rect class="fil1" transform="matrix(3.7352e-14 1.4103 -1.4103 3.7352e-14 27218 15882)" width="304" height="978" rx="27" ry="27"/>
    <path class="fil1" d="m6849 16031l584-75-223-544-77 183c-463-92-593-23-786 263 262-129 432-176 644-51l-142 224z"/>
    <path class="fil1" d="m6920 16162l-583 75 223 544 77-183c462 92 593 23 785-263-262 129-432 176-643 50l141-223z"/>
   <path class="fil1" d="m11378 16233l-28 28h-112v99h-99v77h-172v167h-91v120c-70 39-161 29-221-31-72-72-72-190 0-262l459-458c19 58 52 113 98 159 48 48 106 82 166 101zm410-677c148 147 148 386 0 533-147 147-386 147-533 0s-147-386 0-533 386-147 533 0zm-78 78c41 41 41 107 0 147-40 41-106 41-147 0-40-40-40-106 0-147 41-40 107-40 147 0z"/>
    <polygon class="fil1" points="9498 16316 9447 16316 9447 16176 8709 16176 8709 16316 8659 16316 8661 16122 9051 16122 9047 15893 9112 15893 9111 16122 9498 16122"/>
    <rect class="fil1" x="8656" y="15423" width="811" height="492"/>
    <rect class="fil1" x="8392" y="16301" width="575" height="468"/>
    <rect class="fil1" x="9167" y="16301" width="575" height="468"/>
   <path class="fil1" d="m12843 16026h878v-112h-1c0-79-32-151-84-203v-1c-52-51-124-84-203-84s-151 33-203 85c-43 43-73 99-82 162h-195c9-116 61-221 139-300h1c87-87 207-141 340-141 132 0 252 54 340 142v-1c87 88 142 208 142 341h-1v112h108v735h-1179v-735zm591 165c50 0 91 41 91 92 0 33-18 63-45 79l5 52c4 48 9 105 16 173h-134c5-69 10-126 14-175l4-51c-26-17-43-45-43-78 0-51 41-92 92-92z"/>
   <path class="fil1" d="m13433 15899c50 0 91 41 91 91 0 34-18 63-45 79l5 52c4 49 10 105 16 173h-134c5-68 10-126 14-175l4-51c-26-16-43-45-43-78 0-50 41-91 92-91z"/>
   <path class="fil1" d="m14022 16026h-877v-112c0-79 33-151 85-203v-1c52-51 123-84 203-84 79 0 151 33 203 85 43 43 72 99 81 162h196c-10-116-62-221-140-300-88-87-208-141-340-141-133 0-253 54-341 142v-1c-87 88-141 208-141 341v112h-108v735h1179v-735zm-590 165c-51 0-92 41-92 92 0 33 18 63 45 79l-4 52c-5 48-10 105-16 173h134c-6-69-11-126-15-175l-4-51c26-17 44-45 44-78 0-51-42-92-92-92z"/>
    <circle class="fil1" cx="19549" cy="16528" r="219"/>
    <path class="fil2" d="m19451 15689c-67 0-121-55-121-122s54-121 121-121c326 0 621 132 835 345 213 214 345 509 345 835 0 67-54 121-121 121s-122-54-122-121c0-259-104-493-274-663-170-169-404-274-663-274z"/>
    <path class="fil2" d="m19451 16070c-67 0-121-54-121-121s54-121 121-121c221 0 420 89 565 233 144 145 234 344 234 565 0 67-55 121-122 121s-121-54-121-121c0-154-62-292-163-393-100-100-239-163-393-163z"/>
   <path class="fil1" d="m15026 16026h108v-112c0-18 0-35 2-52l1-3v-2l1-5v-6l1-5 1-5v-1l1-5v-1l1-4v-2l3-12v-2l1-4v-1l1-4v-1l2-5 1-6 2-5v-1l1-4v-1l2-4v-2l1-3 1-3 1-2 1-3v-2l2-4 4-11 2-5 2-5v-1l5-11 1-2 1-3c3-5 5-11 8-16l2-5c23-45 53-86 89-122 68-68 157-116 255-133l6-1 6-1 6-1 6-1 6-1 6-1h6l6-1h13l6-1h37l6 1h12l6 1h6l6 1 6 1 6 1 6 1 6 1 6 1c99 17 187 65 255 133h1c22 22 41 46 59 72v1c8 11 16 24 23 36l2 5 4 8 5 9v1l1 1 4 9v1l2 3 1 2c2 6 5 11 7 17l2 5 2 6 1 4 1 1 1 4 3 7v3l3 9 1 1 1 4v1l2 9 2 6v2l1 4 1 3 1 5 2 8v3l1 2 1 4v4l2 8v6l1 5v1l1 4c0 5 1 10 1 14v2c2 14 2 27 2 41v112h108v735h-1179v-735zm301 0h576v-112c0-14-1-28-3-42l-1-4v-3l-1-2v-3l-1-1-1-6v-3l-1-1v-3l-1-2-1-4-1-4v-1l-1-3-1-2v-2l-2-6-1-3h-1v-3l-2-4v-1l-1-1-1-3-1-2-2-4v-2l-1-1-1-2-1-3v-1c-3-5-5-10-8-15-4-6-7-12-11-18l-1-2-2-3-1-1v-1l-3-4c-7-10-14-18-22-27-3-4-6-7-10-10v-1c-2-2-5-4-7-7l-2-2h-1l-2-2c-29-26-64-46-102-59l-3-1-4-1-3-1-4-1-3-1h-4l-3-1-3-1-4-1-3-1h-4l-3-1h-4l-4-1h-3l-4-1h-3l-4-1h-15l-3-1h-15l-4 1h-14l-4 1h-4l-3 1h-4l-3 1h-4l-4 1h-3l-4 1-3 1-3 1-4 1h-3l-4 1-3 1-4 1-3 1-3 1-4 1-3 2-3 1c-30 11-57 26-82 46l-2 2-3 2-3 2v1l-2 2-3 2-2 2-8 7v1c-11 11-22 24-31 37l-4 5-1 2-1 1-1 1-1 2-5 9-1 2-1 1-1 1-1 2v1l-1 2-2 3-5 10-3 7-1 1v1l-1 1-2 5v1l-2 5v1l-1 2-1 1v1l-1 3-1 3-1 3-1 2v2l-1 1v2l-1 1v3l-1 3-1 3-1 2-2 9v3l-1 3v1c-1 4-2 9-2 13-2 14-3 27-3 41h-1v112zm241 336l-3 29-1 21c-4 49-9 106-15 175h133c-6-69-11-126-15-175l-2-21-2-29v-1c26-17 43-45 43-78 0-50-40-91-89-92h-3c-50 1-90 42-90 92 0 33 18 61 44 78v1z"/>
   <path class="fil1" d="m17107 15983l76-76c37-37 98-37 135 0l329 329 631-632c37-37 98-37 135 0l76 76c37 37 37 97 0 134l-775 775-2 2-2 2-2 1-1 2-2 1-2 2-2 1-2 1-2 2-2 1-2 1-2 1-2 1-2 1-3 1-2 1-2 1-2 1h-2l-2 1-3 1h-2l-2 1h-5l-2 1h-4l-3 1h-13l-3-1h-4l-2-1h-5l-2-1h-2l-3-1-2-1h-2l-2-1-2-1-2-1-2-1h-1c-9-4-18-11-27-19l-472-472c-37-37-37-97 0-134z"/>
    <path class="fil1" d="m23990 15516h737c12 0 22 10 22 22v507c0 12-10 22-22 22h-737c-12 0-21-10-21-22v-507c0-12 9-22 21-22zm-41-49h820c22 0 40 17 40 39v571c0 22-18 39-40 39h-820c-22 0-40-17-40-39v-571c0-22 18-39 40-39z"/>
    <path class="fil1" d="m23949 16168h820c22 0 40 17 40 40v171c0 22-18 39-40 39h-382v153h140c9 0 17 7 17 17v47h301c5 0 9 4 9 9v39c0 5-4 9-9 9h-301v17c0 10-8 17-17 17h-350c-9 0-17-7-17-17v-17h-313c-5 0-9-4-9-9v-39c0-5 4-9 9-9h313v-47c0-10 8-17 17-17h153v-153h-381c-22 0-40-17-40-39v-171c0-23 18-40 40-40zm542 80h186c5 0 9 4 9 9v38c0 6-4 10-9 10h-186c-5 0-9-4-9-10v-38c0-5 4-9 9-9z"/>
   <path class="fil1" d="m28134 15416h1154c43 0 78 36 78 78v1204c0 43-35 78-78 78h-1154c-43 0-78-35-78-78v-1204c0-42 35-78 78-78zm132 104h890c34 0 61 27 61 60v509c0 33-27 60-61 60h-890c-33 0-60-27-60-60v-509c0-33 27-60 60-60zm7 429h802v66h-802v-66zm0-133h802v67h-802v-67zm0-132h802v66h-802v-66zm59 563h59c-18 1-32 15-32 33v368c0 18 15 33 33 33h-60c-18 0-33-15-33-33v-368c0-18 15-33 33-33zm232 0h398c18 0 33 15 33 33v368c0 18-15 33-33 33h-399c18 0 33-15 33-33v-368c0-18-14-32-32-33z"/>
   <path class="fil1" d="m22052 15459c310 0 568 220 626 512h234l-164 195-164 195-164-195-164-195h226c-54-186-226-322-430-322-247 0-447 200-447 447 0 248 200 448 447 448 103 0 198-35 273-93l78 178c-100 66-221 105-351 105-352 0-637-285-637-638 0-352 285-637 637-637z"/>
   <path class="fil1" d="m32596 15651h78v347c-8-32-45-57-90-57h-71v-191c0-54 37-99 83-99zm856 349v-224l-164-125h269c46 0 83 45 83 99v191h-71c-46 0-84 26-90 59h-27z"/>
   <path class="fil1" d="m33815 16538v48c0 29-31 53-69 53h-1339c-38 0-69-24-69-53v-48c15 9 35 15 55 15h149v-65c0-28 29-50 66-50h938c36 0 65 22 65 50v65h149c21 0 40-6 55-15z"/>
   <path class="fil2" d="m32693 15982h767c7-15 19-28 34-38 20-13 46-21 75-21h191c63 0 115 39 115 88v472c0 48-52 88-115 88h-173v-83c0-9-4-17-12-23-7-6-18-9-29-9h-938c-12 0-22 3-30 9s-12 14-12 23v83h-173c-63 0-115-40-115-88v-472c0-49 52-88 115-88h191c29 0 55 8 75 21 15 10 27 23 34 38zm786 36h-825l-3-15c-2-13-11-24-23-32-12-7-27-12-44-12h-191c-37 0-67 23-67 52v472c0 28 30 52 67 52h125v-47c0-19 10-36 26-48 17-13 39-20 64-20h938c24 0 47 7 63 20 16 12 26 29 26 48v47h125c37 0 68-24 68-52v-472c0-29-31-52-68-52h-191c-17 0-32 5-44 12-12 8-21 19-23 32l-3 15h-20z"/>
   <path class="fil2" d="m32674 15554h504c5 0 9 2 12 4l274 209c3 2 4 5 4 9v224c0 7-7 13-16 13h-778c-9 0-17-6-17-13v-433c0-7 8-13 17-13zm497 26h-480v407h744v-206l-264-201z"/>
   <path class="fil2" d="m33452 15788h-274c-9 0-17-5-17-12v-209c0-7 8-13 17-13 5 0 9 2 12 4l273 209c7 5 7 13 0 18-3 2-7 3-11 3zm-257-25h216l-216-165v165z"/>
   <ellipse class="fil1" cx="33703" cy="16100" rx="51" ry="39"/>
   <path class="fil2" d="m33703 16055c16 0 31 5 41 13 11 8 17 19 17 32 0 12-6 23-17 31-10 8-25 13-41 13s-31-5-41-13c-11-8-17-19-17-31 0-13 6-24 17-32 10-8 25-13 41-13zm31 21c-8-6-19-10-31-10s-23 4-31 10-13 14-13 24c0 9 5 17 13 23s19 10 31 10 23-4 31-10 13-14 13-23c0-10-5-18-13-24z"/>
   <ellipse class="fil1" cx="33703" cy="16205" rx="51" ry="39"/>
   <path class="fil2" d="m33703 16161c16 0 31 5 41 13 11 8 17 19 17 31s-6 23-17 31c-10 8-25 13-41 13s-31-5-41-13c-11-8-17-19-17-31s6-23 17-31c10-8 25-13 41-13zm31 20c-8-6-19-9-31-9s-23 3-31 9-13 15-13 24 5 18 13 24 19 9 31 9 23-3 31-9 13-15 13-24-5-18-13-24z"/>
   <path class="fil2" d="m5205 15575s60-258-152-79l-199 351-701-7-100 159 629 119-159 298-168 13-77 106 239 53 135 172 63-112-63-172 189-279 414 477 96-165-338-596 192-338z"/>
    <path class="fil1" d="m30366 15612h124v-218h808v218h124c102 0 186 83 186 186v326c0 102-84 186-186 186h-74v-280h-908v280h-74c-102 0-186-84-186-186v-326c0-103 84-186 186-186zm1089 129c25 0 44 20 44 44s-19 44-44 44c-24 0-44-20-44-44s20-44 44-44zm0 352c25 0 44 19 44 44 0 24-19 44-44 44-24 0-44-20-44-44 0-25 20-44 44-44z"/>
    <path class="fil2" d="m30502 16061h819v738h-854v-738h35zm749 70h-714v597h714v-597z"/>
     <rect class="fil1" x="30613" y="16201" width="476.5" height="50.143"/>
     <rect class="fil1" x="30613" y="16301" width="366.23" height="50.143"/>
     <rect class="fil1" x="30613" y="16402" width="499.7" height="50.143"/>
     <rect class="fil1" x="30613" y="16502" width="430.06" height="50.143"/>
   <path class="fil1" d="m35588 15682l93-93 94 93-94 93-93-93zm-1036 570l798-798 373-62 243 244-62 362-803 803-549-549zm711 226l-52 52-388-388 52-52 388 388zm108-108l-51 52-389-389 52-51 388 388z"/>
    <path class="fil1" d="m26443 11044h177c29 0 52 23 52 52v682c0 28-23 52-52 52h-177c-29 0-52-24-52-52v-682c0-29 23-52 52-52zm315 162c239 92 408 324 408 596 0 352-285 638-637 638-353 0-638-286-638-638 0-274 172-507 414-598v210c-134 77-224 222-224 388 0 247 200 448 448 448 247 0 447-201 447-448 0-164-87-307-218-385v-211z"/>
     <path class="fil1" d="m6247 11568h139c1 72 60 131 132 131 73 0 132-59 133-131h468c1 72 60 131 132 131 73 0 131-59 133-131h139c62 0 112 51 112 113 0 59-46 108-104 112l-168 556c-9 28-24 53-54 53h-869c-29 0-46-25-53-53l-148-556c-58-4-105-53-105-112 0-62 51-113 113-113zm200 296h876c16 0 29 12 29 28s-13 29-29 29h-876c-16 0-29-13-29-29s13-28 29-28zm75 134h726c16 0 29 13 29 29s-13 29-29 29h-726c-16 0-29-13-29-29s13-29 29-29zm82 126h562c16 0 29 13 29 29s-13 29-29 29h-562c-16 0-29-13-29-29s13-29 29-29z"/>
      <rect class="fil1" transform="matrix(2.1119 1.2193 -1.2193 2.1119 6733.6 11055)" width="58.696" height="256.07" rx="29" ry="29"/>
      <rect class="fil1" transform="matrix(-2.1119 1.2193 1.2193 2.1119 7035.9 11055)" width="58.696" height="256.07" rx="29" ry="29"/>
      <path class="fil2" d="m11825 11703v647c0 8-3 15-9 21-12 11-31 11-42 0l-323-328c-11-12-11-31 1-42l320-317c6-6 14-10 23-10 16 0 30 13 30 29zm-1099-21l323 319c11 11 11 30 0 42l-322 327c-5 6-13 10-22 10-16 0-29-14-29-30v-647c0-7 2-15 8-21 11-11 30-11 42 0zm31-85h210l200 200c39 39 102 39 142 0l199-200h235c8 0 16 3 21 9 12 12 12 30 0 42l-412 411-1 2c-19 19-36 34-51 44-19 12-35 19-50 19-14 0-31-7-49-19-16-10-33-25-52-44l-412-412c-6-5-10-13-10-22 0-17 13-30 30-30zm681 467l324 325c5 5 8 12 8 20 0 17-13 30-29 30h-980c-8 0-16-2-23-9-11-11-11-30 0-41l324-324c12-12 31-12 42-1l53 53c12 12 26 21 41 27l1 1c16 6 33 9 51 9 19 0 36-3 51-9s29-16 42-28l52-52h1v-1c11-11 30-11 42 0zm-42 1v-1 1z"/>
     <path class="fil1" d="m11570 11398c29 29 29 77 0 106l-280 279c-29 29-76 29-105 0l-279-279c-29-29-29-77 0-106 40-37 151 46 251 84v-388c0-27 22-50 49-50h75c27 0 49 23 49 50v384c94-40 195-114 240-80z"/>
     <path class="fil2" d="m9240 12001l300 299c5 5 8 12 8 20 0 15-13 27-28 27h-904c-7 0-15-2-21-8-11-11-11-28 0-39l298-298 1-1c11-10 28-11 39 0l49 48c11 12 23 20 37 26h1c15 6 30 9 47 9 18 0 33-3 47-9 14-5 27-14 39-26l48-47 1-1c11-11 28-11 38 0z"/>
     <path class="fil2" d="m9550 11596c0 8-2 15-8 20l-201 201v-164h-122v-132h-402v320l-223-223c-6-5-9-13-9-21v-2c0-8 3-16 9-21l380-379c18-18 34-32 48-41 17-12 32-17 45-17 14 0 29 5 46 17 14 9 30 23 48 41l1 1 380 380c6 5 8 13 8 20zm-319 332l-23 22h-281l-23-22h327zm-57 56l-12 13-1 1-10 9h-167l-10-9-13-14h213zm-304-91l-1-1v-21h309v22h-308zm376-372l90 106h-90v-106zm-377 236h320v23h-320v-23zm0 57h358v23h-358v-23z"/>
     <path class="fil2" d="m8583 11648l298 295c11 10 11 27 1 38l-297 302c-5 5-13 9-21 9-15 0-27-12-27-27v-597c0-7 3-14 8-19 10-11 28-11 38-1z"/>
     <path class="fil2" d="m9598 11668v597c0 7-3 14-8 19-11 11-28 11-39 0l-298-303c-10-11-10-28 0-38l296-293c5-6 13-10 21-10 16 0 28 12 28 28z"/>
     <path class="fil2" d="m14043 11407v687c0 8-4 16-10 22-12 13-32 12-44 0l-343-348c-12-12-12-32 1-44l340-337c6-7 15-11 24-11 18 0 32 14 32 31zm-1167-22l343 339c12 12 12 32 0 44l-341 347c-6 6-15 11-24 11-17 0-31-15-31-32v-687c0-8 3-16 9-22 12-12 32-12 44 0zm33-90h1047c8 0 17 3 23 9 12 13 12 32 0 45l-438 437-1 1c-20 20-39 36-55 47-19 13-37 20-52 20-16 0-33-7-53-20-16-11-34-27-54-47l-437-437c-7-6-11-14-11-24 0-17 14-31 31-31zm723 496l344 344c5 6 9 14 9 22 0 17-14 31-31 31h-1040c-9 1-18-2-24-9-13-12-13-32 0-44l343-343 1-1c12-12 32-12 44 0l56 55c13 13 28 23 43 30h2c16 7 34 10 54 10 19 0 37-3 54-10 16-6 31-16 44-30l56-54v-1c13-12 33-12 45 0zm-45 0z"/>
    <polygon class="fil1" points="19981 11159 20171 11542 20594 11604 20288 11903 20360 12325 19981 12127 19602 12325 19673 11903 19368 11604 19791 11542"/>
    <path class="fil2" d="m16244 12137c0 29-5 50-17 61-11 12-30 17-57 17h-1110c-20 0-37-5-50-17-16-14-24-34-24-61v-797c0-19 8-36 23-50 16-15 33-22 51-22h1110c25 0 44 7 56 20 12 14 18 31 18 52v797zm-855-396l-329-325v660l329-335zm729-403h-1005l421 421c37 37 64 56 81 56 18 0 45-19 82-56l421-421zm-2 798l-331-330-54 53c-31 31-70 47-116 47-45 0-84-16-115-47l-54-53-331 330h1001zm55-60v-660l-329 325 329 335z"/>
    <path class="fil1" d="m17798 11159l190 383 423 62-305 299 71 422-379-199-379 199 72-422-306-299 423-62 190-383zm0 206l123 248 273 40-197 193 46 272-245-128-245 128 46-272-197-193 273-40 123-248z"/>
    <path class="fil1" d="m23837 11232c281-281 737-281 1018 0 282 282 282 738 0 1019-281 281-737 281-1018 0-282-281-282-737 0-1019zm207 104l708 708c147-199 131-480-48-660-180-180-462-196-660-48zm604 811l-708-707c-147 198-131 480 48 659 180 180 462 196 660 48z"/>
    <path class="fil1" d="m28711 11021c398 0 721 323 721 721 0 397-323 720-721 720-397 0-720-323-720-720 0-398 323-721 720-721zm406 419l-302 302 302 301c63-84 100-188 100-301s-37-218-100-302zm-104 708l-302-302-301 301c84 63 188 100 301 100s218-37 302-99zm-707-105l301-301-301-302c-63 84-100 189-100 302s37 217 100 301zm103-707l302 302 302-302c-84-63-189-100-302-100s-217 37-302 100z"/>
    <path class="fil2" d="m22076 11646c15 0 27-7 36-19s14-27 14-45c0-20-10-68-30-141-32-119-48-207-48-264 0-33 10-61 28-83 18-23 46-34 84-34s66 11 85 33c18 22 27 51 27 85 0 57-17 145-51 263-21 73-31 120-31 140 0 19 5 34 15 46 9 13 21 19 34 19 16 0 37-10 61-28 25-18 61-53 110-105 107-114 190-172 249-172 30 0 55 10 76 31 21 20 31 46 31 76 0 22-5 41-15 58s-30 35-61 55c-31 19-63 34-94 45-32 10-78 23-140 39-78 20-126 37-145 50-18 13-27 28-27 46 0 16 7 30 22 43 14 13 56 27 126 43 119 27 206 56 260 86 53 31 80 69 80 116 0 31-10 56-32 77-21 20-45 31-74 31-30 0-64-11-101-33-37-21-98-75-182-160-43-45-74-73-91-85s-34-18-49-18c-28 0-42 15-42 46 0 26 11 84 34 176 25 98 37 171 37 220 0 44-9 79-29 104-20 24-47 37-81 37-35 0-62-13-81-37-20-25-30-59-30-104 0-42 5-84 15-126 9-42 24-105 45-187 8-31 12-56 12-75 0-34-13-51-40-51-18 0-38 8-60 25-23 16-64 54-124 112-67 64-116 106-149 126-32 20-63 30-92 30-27 0-51-11-71-32s-30-47-30-79c0-23 7-44 20-61 14-18 40-36 78-55 39-19 90-39 155-58 64-19 109-31 134-38 68-17 102-39 102-67 0-22-11-39-31-51s-60-25-119-38c-90-19-169-46-238-79-69-34-103-74-103-120 0-28 8-53 26-77 17-23 42-35 73-35 35 0 72 11 111 34s87 66 142 130c79 90 135 135 169 135z"/>
    <path class="fil1" d="m33249 11929l-17 12-21 15-20 8-21 9-20 6-24 6-23 3-23 3-27-3-23-3-21-6-23-6-21-9-20-8-18-15-20-12h-495l17 53 24 53 23 49 29 47 33 44 38 41 38 38 44 36 44 32 46 29 50 23 53 21 53 18 58 11 56 6 59 3 58-3 59-6 55-11 53-18 53-21 50-23 47-29 46-32 41-36 41-38 36-41 32-44 29-47 26-49 21-53 18-53h-493zm-348-375l17-14 21-15 20-12 24-9 23-5 24-6 23-6h50l26 6 24 6 23 5 21 9 20 12 21 15 17 14h487l-18-55-21-50-26-50-29-47-32-44-38-41-39-38-41-35-46-32-47-30-50-23-53-21-53-14-55-12-59-9-58-3-59 3-56 9-55 12-56 14-50 21-50 23-49 30-44 32-41 35-41 38-35 41-33 44-29 47-26 50-21 50-17 55h486zm-267-258l15-14 23-21 33-20 38-24 38-23 32-15 23-8h9l3 2 108 264 3 9v9l-3 8h-5l-12 6-26 18-27 20-12 12-5 3-6 6-6-3-12-6-211-199-3-6v-12l3-6zm384-169l-6-3-9-3h-17l-18 3-12 3-8 2-3 3v6l64 299 21-3h9l8 3-23-293-3-9-3-8z"/>
    <path class="fil1" d="m4074 11113h1256v1257h-1256v-1257zm141 1089l6-145 5-145 86 85 111-111 112 113-111 110 81 81-145 6-145 6zm976 0l-6-145-6-145-85 85-111-111-113 113 111 110-80 81 145 6 145 6zm-976-928l6 145 5 145 86-85 111 111 112-113-111-111 81-80-145-6-145-6zm976 0l-6 145-6 145-85-85-111 111-113-113 111-111-80-80 145-6 145-6z"/>
    <path class="fil2" d="m31666 11742c0 213-75 396-226 547s-333 226-546 226-395-75-546-226-226-334-226-547c0-214 75-396 226-547s333-227 546-227 395 76 546 227 226 333 226 547zm-878-183l-192-334c-90 52-161 123-215 213-53 90-79 189-79 298h383c0-81 34-140 103-177zm397 696l-190-335c-18 11-35 19-53 23-17 4-35 6-56 6-36 0-68-9-98-29l-196 335c92 51 191 77 299 77 106 0 204-25 294-77zm-180-512c0-32-10-59-32-81s-49-33-81-33c-30 0-57 11-80 33-24 22-35 49-35 81s11 60 32 82c22 22 50 33 83 33 31 0 57-12 80-35 22-22 33-49 33-80zm481-7c0-105-26-202-79-293-52-90-125-163-220-218l-190 332c67 43 100 102 100 179h389z"/>
     <polygon class="fil1" points="34910 11178 34833 11178 34833 12387 36090 12387 36090 12309 34910 12309"/>
     <polygon class="fil1" points="35022 11564 35180 11564 35180 12179 35022 12179"/>
     <path class="fil2" d="m35022 11550h173v643h-189v-643h16zm143 29h-128v585h128v-585z"/>
     <polygon class="fil1" points="35238 11421 35397 11421 35397 12179 35238 12179"/>
     <path class="fil2" d="m35238 11407h174v786h-189v-786h15zm143 29h-128v728h128v-728z"/>
     <polygon class="fil1" points="35455 11790 35613 11790 35613 12179 35455 12179"/>
     <path class="fil2" d="m35455 11776h173v417h-188v-417h15zm143 29h-128v359h128v-359z"/>
     <polygon class="fil1" points="35672 11376 35830 11376 35830 12179 35672 12179"/>
     <path class="fil2" d="m35672 11361h173v832h-189v-832h16zm143 29h-128v774h128v-774z"/>
     <polygon class="fil1" points="34428 11200 34709 11200 34709 12198 34428 12198"/>
</svg>