<?xml version="1.0" encoding="UTF-8" standalone="no" ?>
<!DOCTYPE svg PUBLIC "-//W3C//DTD SVG 1.1//EN" "http://www.w3.org/Graphics/SVG/1.1/DTD/svg11.dtd">
<svg xmlns="http://www.w3.org/2000/svg" xmlns:xlink="http://www.w3.org/1999/xlink" version="1.1" width="640" height="480" viewBox="0 0 640 480" xml:space="preserve">
<desc>Created with Fabric.js 3.6.6</desc>
<defs>
</defs>
<g transform="matrix(0.58 0 0 0.58 352.05 253.66)"  >
<g style=""   >
</g>
</g>
<g transform="matrix(0.33 0 0 0.33 318.21 162.67)"  >
<g style=""   >
		<g transform="matrix(1 0 0 1 0 -0.01)"  >
<g style=""   >
		<g transform="matrix(0.1 0 0 0.1 0.47 -28.71)"  >
<ellipse style="stroke: none; stroke-width: 1; stroke-dasharray: none; stroke-linecap: butt; stroke-dashoffset: 0; stroke-linejoin: miter; stroke-miterlimit: 4; fill: rgb(239,231,188); fill-rule: evenodd; opacity: 1;"  cx="0" cy="0" rx="359" ry="400" />
</g>
		<g transform="matrix(0.1 0 0 0.1 0.12 38.78)"  >
<polygon style="stroke: none; stroke-width: 1; stroke-dasharray: none; stroke-linecap: butt; stroke-dashoffset: 0; stroke-linejoin: miter; stroke-miterlimit: 4; fill: rgb(239,231,188); fill-rule: evenodd; opacity: 1;"  points="-348,-299.5 -335,-299.5 -327,-297.5 -319,-294.5 -311,-290.5 -304,-285.5 -295,-278.5 -287,-269.5 -278,-257.5 -269,-244.5 -260,-229.5 -252,-211.5 -243,-193.5 -235,-173.5 -227,-151.5 -220,-129.5 -213,-107.5 -206,-83.5 -199,-60.5 -192,-37.5 -185,-13.5 -179,9.5 -172,32.5 -164,54.5 -157,76.5 -148,97.5 -138,119.5 -127,139.5 -112,160.5 -93,181.5 -68,200.5 -36,213.5 0,218.5 37,213.5 69,199.5 95,180.5 113,159.5 127,138.5 139,117.5 149,95.5 157,74.5 165,51.5 172,29.5 179,6.5 186,-16.5 193,-40.5 200,-64.5 207,-87.5 214,-110.5 222,-133.5 230,-155.5 238,-176.5 247,-196.5 256,-214.5 266,-231.5 275,-246.5 285,-259.5 295,-270.5 304,-279.5 313,-285.5 323,-291.5 332,-295.5 343,-298.5 355,-299.5 373,-300.5 385,-299.5 395,-298.5 405,-297.5 415,-295.5 424,-293.5 434,-291.5 443,-288.5 451,-284.5 460,-281.5 468,-277.5 476,-272.5 483,-268.5 490,-263.5 497,-258.5 504,-252.5 510,-247.5 516,-241.5 521,-235.5 526,-229.5 531,-223.5 535,-217.5 539,-211.5 543,-206.5 546,-200.5 548,-195.5 550,-189.5 552,-185.5 553,-180.5 554,-177.5 555,-173.5 555,-171.5 555,-167.5 555,227.5 555,236.5 554,243.5 552,250.5 550,256.5 547,262.5 543,268.5 539,273.5 534,278.5 528,283.5 522,288.5 516,291.5 509,294.5 502,297.5 495,299.5 487,300.5 477,300.5 -477,300.5 -487,300.5 -494,299.5 -502,297.5 -509,294.5 -516,291.5 -522,288.5 -528,283.5 -533,278.5 -538,273.5 -542,268.5 -546,262.5 -549,256.5 -551,250.5 -553,243.5 -554,236.5 -555,227.5 -555,-167.5 -555,-170.5 -554,-171.5 -554,-174.5 -553,-177.5 -552,-181.5 -550,-185.5 -548,-190.5 -545,-195.5 -541,-201.5 -537,-207.5 -533,-213.5 -528,-219.5 -522,-225.5 -516,-231.5 -510,-237.5 -503,-243.5 -496,-249.5 -488,-255.5 -480,-260.5 -471,-265.5 -462,-270.5 -453,-275.5 -444,-279.5 -434,-283.5 -424,-287.5 -413,-290.5 -403,-293.5 -392,-295.5 -381,-297.5 -369,-298.5 -358,-299.5 " />
</g>
</g>
</g>
		<g transform="matrix(0.03 0 0 0.03 -0.94 -30.86)"  >
<path style="stroke: none; stroke-width: 1; stroke-dasharray: none; stroke-linecap: butt; stroke-dashoffset: 0; stroke-linejoin: miter; stroke-miterlimit: 4; fill: rgb(255,255,255); fill-rule: evenodd; opacity: 1;"  transform=" translate(-15615.5, -13953.5)" d="m 15106 13444 c 281 -281 737 -281 1019 0 c 281 282 281 738 0 1019 c -282 281 -738 281 -1019 0 s -281 -737 0 -1019 z m 208 104 l 707 708 c 148 -199 132 -480 -48 -660 s -461 -196 -659 -48 z m 603 811 l -707 -707 c -148 198 -132 480 48 659 c 180 180 461 196 659 48 z" stroke-linecap="round" />
</g>
</g>
</g>
<g transform="matrix(1.8 0 0 1.8 320.2 288.54)"  >
<circle style="stroke: rgb(116,189,203); stroke-width: 8; stroke-dasharray: none; stroke-linecap: butt; stroke-dashoffset: 0; stroke-linejoin: miter; stroke-miterlimit: 4; fill: none; fill-rule: nonzero; opacity: 1;"  cx="0" cy="0" r="40" />
</g>
<g transform="matrix(0.22 0.3 -0.3 0.22 378.41 247.28)"  >
<path style="stroke: rgb(0,0,0); stroke-width: 1; stroke-dasharray: none; stroke-linecap: butt; stroke-dashoffset: 0; stroke-linejoin: miter; stroke-miterlimit: 10; fill: rgb(116,189,203); fill-rule: evenodd; opacity: 1;"  transform=" translate(-59.83, -29.92)" d="m 0 14.960629 l 89.732285 0 l 0 -14.960629 l 29.921257 29.921259 l -29.921257 29.921259 l 0 -14.9606285 l -89.732285 0 z" stroke-linecap="round" />
</g>
<g transform="matrix(-0.37 0 0 -0.37 320.53 359.94)"  >
<path style="stroke: rgb(0,0,0); stroke-width: 1; stroke-dasharray: none; stroke-linecap: butt; stroke-dashoffset: 0; stroke-linejoin: miter; stroke-miterlimit: 10; fill: rgb(116,189,203); fill-rule: evenodd; opacity: 1;"  transform=" translate(-59.83, -29.92)" d="m 0 14.960629 l 89.732285 0 l 0 -14.960629 l 29.921257 29.921259 l -29.921257 29.921259 l 0 -14.9606285 l -89.732285 0 z" stroke-linecap="round" />
</g>
<g transform="matrix(0.23 -0.29 0.29 0.23 265 244.1)"  >
<path style="stroke: rgb(0,0,0); stroke-width: 1; stroke-dasharray: none; stroke-linecap: butt; stroke-dashoffset: 0; stroke-linejoin: miter; stroke-miterlimit: 10; fill: rgb(116,189,203); fill-rule: evenodd; opacity: 1;"  transform=" translate(-59.83, -29.92)" d="m 0 14.960629 l 89.732285 0 l 0 -14.960629 l 29.921257 29.921259 l -29.921257 29.921259 l 0 -14.9606285 l -89.732285 0 z" stroke-linecap="round" />
</g>
<g transform="matrix(1 0 0 1 319.78 196.5)" style=""  >
		<text xml:space="preserve" font-family="'Open Sans', sans-serif" font-size="18" font-style="normal" font-weight="normal" style="stroke: none; stroke-width: 1; stroke-dasharray: none; stroke-linecap: butt; stroke-dashoffset: 0; stroke-linejoin: miter; stroke-miterlimit: 4; fill: rgb(0,0,0); fill-rule: nonzero; opacity: 1; white-space: pre;" ><tspan x="-46.28" y="5.65" >Unlearning</tspan></text>
</g>
<g transform="matrix(1 0 0 1 187.69 326.5)" style=""  >
		<text xml:space="preserve" font-family="'Open Sans', sans-serif" font-size="18" font-style="normal" font-weight="normal" style="stroke: none; stroke-width: 1; stroke-dasharray: none; stroke-linecap: butt; stroke-dashoffset: 0; stroke-linejoin: miter; stroke-miterlimit: 4; fill: rgb(0,0,0); fill-rule: nonzero; opacity: 1; white-space: pre;" ><tspan x="-58.02" y="5.65" style="stroke-width: 1; font-family: 'Open Sans', sans-serif; font-size: 18px; font-style: normal; font-weight: normal; fill: rgb(0,0,0); ">Breakthrough</tspan></text>
</g>
<g transform="matrix(1 0 0 1 443.46 330.67)" style=""  >
		<text xml:space="preserve" font-family="'Open Sans', sans-serif" font-size="18" font-style="normal" font-weight="normal" style="stroke: none; stroke-width: 1; stroke-dasharray: none; stroke-linecap: butt; stroke-dashoffset: 0; stroke-linejoin: miter; stroke-miterlimit: 4; fill: rgb(0,0,0); fill-rule: nonzero; opacity: 1; white-space: pre;" ><tspan x="-46.28" y="5.65" style="stroke-width: 1; font-family: 'Open Sans', sans-serif; font-size: 18px; font-style: normal; font-weight: normal; fill: rgb(0,0,0); ">Relearning</tspan></text>
</g>
<g transform="matrix(1 0 0 1 170.31 224.44)"  >
<g style=""   >
</g>
</g>
<g transform="matrix(0.57 0 0 0.57 210.81 292.28)"  >
<g style=""   >
		<g transform="matrix(0.58 0 0 0.58 0 0)"  >
<g style=""   >
		<g transform="matrix(0.1 0 0 0.1 0.35 -28.27)"  >
<ellipse style="stroke: none; stroke-width: 1; stroke-dasharray: none; stroke-linecap: butt; stroke-dashoffset: 0; stroke-linejoin: miter; stroke-miterlimit: 4; fill: rgb(239,231,188); fill-rule: evenodd; opacity: 1;"  cx="0" cy="0" rx="359" ry="400" />
</g>
		<g transform="matrix(0.1 0 0 0.1 0 38.22)"  >
<polygon style="stroke: none; stroke-width: 1; stroke-dasharray: none; stroke-linecap: butt; stroke-dashoffset: 0; stroke-linejoin: miter; stroke-miterlimit: 4; fill: rgb(239,231,188); fill-rule: evenodd; opacity: 1;"  points="-348,-299.5 -335,-299.5 -327,-297.5 -319,-294.5 -311,-290.5 -304,-285.5 -295,-278.5 -287,-269.5 -278,-257.5 -269,-244.5 -260,-229.5 -252,-211.5 -243,-193.5 -235,-173.5 -227,-151.5 -220,-129.5 -213,-107.5 -206,-83.5 -199,-60.5 -192,-37.5 -185,-13.5 -179,9.5 -172,32.5 -164,54.5 -157,76.5 -148,97.5 -138,119.5 -127,139.5 -112,160.5 -93,181.5 -68,200.5 -36,213.5 0,218.5 37,213.5 69,199.5 95,180.5 113,159.5 127,138.5 139,117.5 149,95.5 157,74.5 165,51.5 172,29.5 179,6.5 186,-16.5 193,-40.5 200,-64.5 207,-87.5 214,-110.5 222,-133.5 230,-155.5 238,-176.5 247,-196.5 256,-214.5 266,-231.5 275,-246.5 285,-259.5 295,-270.5 304,-279.5 313,-285.5 323,-291.5 332,-295.5 343,-298.5 355,-299.5 373,-300.5 385,-299.5 395,-298.5 405,-297.5 415,-295.5 424,-293.5 434,-291.5 443,-288.5 451,-284.5 460,-281.5 468,-277.5 476,-272.5 483,-268.5 490,-263.5 497,-258.5 504,-252.5 510,-247.5 516,-241.5 521,-235.5 526,-229.5 531,-223.5 535,-217.5 539,-211.5 543,-206.5 546,-200.5 548,-195.5 550,-189.5 552,-185.5 553,-180.5 554,-177.5 555,-173.5 555,-171.5 555,-167.5 555,227.5 555,236.5 554,243.5 552,250.5 550,256.5 547,262.5 543,268.5 539,273.5 534,278.5 528,283.5 522,288.5 516,291.5 509,294.5 502,297.5 495,299.5 487,300.5 477,300.5 -477,300.5 -487,300.5 -494,299.5 -502,297.5 -509,294.5 -516,291.5 -522,288.5 -528,283.5 -533,278.5 -538,273.5 -542,268.5 -546,262.5 -549,256.5 -551,250.5 -553,243.5 -554,236.5 -555,227.5 -555,-167.5 -555,-170.5 -554,-171.5 -554,-174.5 -553,-177.5 -552,-181.5 -550,-185.5 -548,-190.5 -545,-195.5 -541,-201.5 -537,-207.5 -533,-213.5 -528,-219.5 -522,-225.5 -516,-231.5 -510,-237.5 -503,-243.5 -496,-249.5 -488,-255.5 -480,-260.5 -471,-265.5 -462,-270.5 -453,-275.5 -444,-279.5 -434,-283.5 -424,-287.5 -413,-290.5 -403,-293.5 -392,-295.5 -381,-297.5 -369,-298.5 -358,-299.5 " />
</g>
</g>
</g>
		<g transform="matrix(0.58 0 0 0.58 0.67 -17.89)"  >
<g style=""   >
		<g transform="matrix(0.05 0 0 0.05 0.68 26.14)"  >
<path style="stroke: none; stroke-width: 1; stroke-dasharray: none; stroke-linecap: butt; stroke-dashoffset: 0; stroke-linejoin: miter; stroke-miterlimit: 4; fill: rgb(255,255,255); fill-rule: evenodd; opacity: 1;"  transform=" translate(-22179.5, -14466.5)" d="m 22179 14527 h -71 l -54 -78 c 0 -14 -1 -29 -1 -43 h 253 c -1 14 -1 29 -1 43 l -55 78 h -71 z" stroke-linecap="round" />
</g>
		<g transform="matrix(0.05 0 0 0.05 0.35 4.22)"  >
<path style="stroke: none; stroke-width: 1; stroke-dasharray: none; stroke-linecap: butt; stroke-dashoffset: 0; stroke-linejoin: miter; stroke-miterlimit: 4; fill: rgb(255,255,255); fill-rule: evenodd; opacity: 1;"  transform=" translate(-22177, -14046.5)" d="m 22177 14542 h -73 l -57 -80 c 0 -144 -12 -277 -89 -352 c -64 -59 -104 -143 -104 -236 c 0 -178 145 -323 323 -323 s 323 145 323 323 c 0 93 -40 177 -104 236 c -77 75 -89 208 -89 352 l -57 80 h -73 z m -98 -206 h 196 c 11 -103 39 -211 90 -260 c 55 -51 89 -123 89 -203 c 0 -153 -124 -277 -277 -277 s -277 124 -277 277 c 0 80 34 152 88 203 c 51 49 80 157 91 260 z m 193 29 h -191 c 1 9 1 18 2 27 h 188 c 0 -9 1 -18 1 -27 z m -2 56 h -187 v 8 l 10 15 h 168 l 9 -15 v -8 z m -25 53 h -134 l 13 24 h 108 l 13 -24 z" stroke-linecap="round" />
</g>
		<g transform="matrix(0.05 0 0 0.05 22.03 -4.91)"  >
<path style="stroke: none; stroke-width: 1; stroke-dasharray: none; stroke-linecap: butt; stroke-dashoffset: 0; stroke-linejoin: miter; stroke-miterlimit: 4; fill: rgb(255,255,255); fill-rule: evenodd; opacity: 1;"  transform=" translate(-22596, -13858)" d="m 22638 13879 h -84 c -12 0 -21 -9 -21 -21 c 0 -11 9 -21 21 -21 h 84 c 12 0 21 10 21 21 c 0 12 -9 21 -21 21 z" stroke-linecap="round" />
</g>
		<g transform="matrix(0.05 0 0 0.05 -22.15 -4.91)"  >
<path style="stroke: none; stroke-width: 1; stroke-dasharray: none; stroke-linecap: butt; stroke-dashoffset: 0; stroke-linejoin: miter; stroke-miterlimit: 4; fill: rgb(255,255,255); fill-rule: evenodd; opacity: 1;"  transform=" translate(-21731, -13858)" d="m 21773 13879 h -84 c -12 0 -21 -9 -21 -21 c 0 -11 9 -21 21 -21 h 84 c 11 0 21 10 21 21 c 0 12 -10 21 -21 21 z" stroke-linecap="round" />
</g>
		<g transform="matrix(0.05 0 0 0.05 15.56 -20.54)"  >
<path style="stroke: none; stroke-width: 1; stroke-dasharray: none; stroke-linecap: butt; stroke-dashoffset: 0; stroke-linejoin: miter; stroke-miterlimit: 4; fill: rgb(255,255,255); fill-rule: evenodd; opacity: 1;"  transform=" translate(-22469.13, -13552.5)" d="m 22514 13538 l -60 59 c -8 8 -21 8 -29 0 c -9 -8 -9 -21 0 -30 l 59 -59 c 8 -8 22 -8 30 0 s 8 22 0 30 z" stroke-linecap="round" />
</g>
		<g transform="matrix(0.05 0 0 0.05 -15.68 10.72)"  >
<path style="stroke: none; stroke-width: 1; stroke-dasharray: none; stroke-linecap: butt; stroke-dashoffset: 0; stroke-linejoin: miter; stroke-miterlimit: 4; fill: rgb(255,255,255); fill-rule: evenodd; opacity: 1;"  transform=" translate(-21857.5, -14164.5)" d="m 21902 14149 l -59 60 c -9 8 -22 8 -30 0 s -8 -22 0 -30 l 59 -59 c 8 -8 22 -8 30 0 s 8 21 0 29 z" stroke-linecap="round" />
</g>
		<g transform="matrix(0.05 0 0 0.05 15.56 10.72)"  >
<path style="stroke: none; stroke-width: 1; stroke-dasharray: none; stroke-linecap: butt; stroke-dashoffset: 0; stroke-linejoin: miter; stroke-miterlimit: 4; fill: rgb(255,255,255); fill-rule: evenodd; opacity: 1;"  transform=" translate(-22469.13, -14164.5)" d="m 22484 14209 l -59 -60 c -9 -8 -9 -21 0 -29 c 8 -8 21 -8 29 0 l 60 59 c 8 8 8 22 0 30 s -22 8 -30 0 z" stroke-linecap="round" />
</g>
		<g transform="matrix(0.05 0 0 0.05 -15.68 -20.54)"  >
<path style="stroke: none; stroke-width: 1; stroke-dasharray: none; stroke-linecap: butt; stroke-dashoffset: 0; stroke-linejoin: miter; stroke-miterlimit: 4; fill: rgb(255,255,255); fill-rule: evenodd; opacity: 1;"  transform=" translate(-21857.5, -13552.5)" d="m 21872 13597 l -59 -59 c -8 -8 -8 -22 0 -30 s 21 -8 30 0 l 59 59 c 8 9 8 22 0 30 s -22 8 -30 0 z" stroke-linecap="round" />
</g>
		<g transform="matrix(0.05 0 0 0.05 1.02 -26.88)"  >
<path style="stroke: none; stroke-width: 1; stroke-dasharray: none; stroke-linecap: butt; stroke-dashoffset: 0; stroke-linejoin: miter; stroke-miterlimit: 4; fill: rgb(255,255,255); fill-rule: evenodd; opacity: 1;"  transform=" translate(-22184, -13428.5)" d="m 22163 13471 v -85 c 0 -11 9 -21 21 -21 c 11 0 21 10 21 21 v 85 c 0 11 -10 21 -21 21 c -12 0 -21 -10 -21 -21 z" stroke-linecap="round" />
</g>
</g>
</g>
</g>
</g>
<g transform="matrix(1 0 0 1 425.88 294.92)"  >
<g style=""   >
		<g transform="matrix(0.35 0 0 0.35 0 0)"  >
<g style=""   >
		<g transform="matrix(0.1 0 0 0.1 0.35 -28.77)"  >
<ellipse style="stroke: none; stroke-width: 1; stroke-dasharray: none; stroke-linecap: butt; stroke-dashoffset: 0; stroke-linejoin: miter; stroke-miterlimit: 4; fill: rgb(239,231,188); fill-rule: evenodd; opacity: 1;"  cx="0" cy="0" rx="359" ry="400" />
</g>
		<g transform="matrix(0.1 0 0 0.1 0 38.72)"  >
<polygon style="stroke: none; stroke-width: 1; stroke-dasharray: none; stroke-linecap: butt; stroke-dashoffset: 0; stroke-linejoin: miter; stroke-miterlimit: 4; fill: rgb(239,231,188); fill-rule: evenodd; opacity: 1;"  points="-348,-299.5 -335,-299.5 -327,-297.5 -319,-294.5 -311,-290.5 -304,-285.5 -295,-278.5 -287,-269.5 -278,-257.5 -269,-244.5 -260,-229.5 -252,-211.5 -243,-193.5 -235,-173.5 -227,-151.5 -220,-129.5 -213,-107.5 -206,-83.5 -199,-60.5 -192,-37.5 -185,-13.5 -179,9.5 -172,32.5 -164,54.5 -157,76.5 -148,97.5 -138,119.5 -127,139.5 -112,160.5 -93,181.5 -68,200.5 -36,213.5 0,218.5 37,213.5 69,199.5 95,180.5 113,159.5 127,138.5 139,117.5 149,95.5 157,74.5 165,51.5 172,29.5 179,6.5 186,-16.5 193,-40.5 200,-64.5 207,-87.5 214,-110.5 222,-133.5 230,-155.5 238,-176.5 247,-196.5 256,-214.5 266,-231.5 275,-246.5 285,-259.5 295,-270.5 304,-279.5 313,-285.5 323,-291.5 332,-295.5 343,-298.5 355,-299.5 373,-300.5 385,-299.5 395,-298.5 405,-297.5 415,-295.5 424,-293.5 434,-291.5 443,-288.5 451,-284.5 460,-281.5 468,-277.5 476,-272.5 483,-268.5 490,-263.5 497,-258.5 504,-252.5 510,-247.5 516,-241.5 521,-235.5 526,-229.5 531,-223.5 535,-217.5 539,-211.5 543,-206.5 546,-200.5 548,-195.5 550,-189.5 552,-185.5 553,-180.5 554,-177.5 555,-173.5 555,-171.5 555,-167.5 555,227.5 555,236.5 554,243.5 552,250.5 550,256.5 547,262.5 543,268.5 539,273.5 534,278.5 528,283.5 522,288.5 516,291.5 509,294.5 502,297.5 495,299.5 487,300.5 477,300.5 -477,300.5 -487,300.5 -494,299.5 -502,297.5 -509,294.5 -516,291.5 -522,288.5 -528,283.5 -533,278.5 -538,273.5 -542,268.5 -546,262.5 -549,256.5 -551,250.5 -553,243.5 -554,236.5 -555,227.5 -555,-167.5 -555,-170.5 -554,-171.5 -554,-174.5 -553,-177.5 -552,-181.5 -550,-185.5 -548,-190.5 -545,-195.5 -541,-201.5 -537,-207.5 -533,-213.5 -528,-219.5 -522,-225.5 -516,-231.5 -510,-237.5 -503,-243.5 -496,-249.5 -488,-255.5 -480,-260.5 -471,-265.5 -462,-270.5 -453,-275.5 -444,-279.5 -434,-283.5 -424,-287.5 -413,-290.5 -403,-293.5 -392,-295.5 -381,-297.5 -369,-298.5 -358,-299.5 " />
</g>
</g>
</g>
		<g transform="matrix(0.88 0 0 0.88 2.96 -8.71)"  >
<g style=""   >
		<g transform="matrix(0.01 0 0 0.01 -2.5 -7)"  >
<path style="stroke: none; stroke-width: 1; stroke-dasharray: none; stroke-linecap: butt; stroke-dashoffset: 0; stroke-linejoin: miter; stroke-miterlimit: 4; fill: rgb(255,255,255); fill-rule: evenodd; opacity: 1;"  transform=" translate(-6890, -15721.5)" d="m 6849 16031 l 584 -75 l -223 -544 l -77 183 c -463 -92 -593 -23 -786 263 c 262 -129 432 -176 644 -51 l -142 224 z" stroke-linecap="round" />
</g>
		<g transform="matrix(0.01 0 0 0.01 -2.65 4.06)"  >
<path style="stroke: none; stroke-width: 1; stroke-dasharray: none; stroke-linecap: butt; stroke-dashoffset: 0; stroke-linejoin: miter; stroke-miterlimit: 4; fill: rgb(255,255,255); fill-rule: evenodd; opacity: 1;"  transform=" translate(-6879.5, -16471.5)" d="m 6920 16162 l -583 75 l 223 544 l 77 -183 c 462 92 593 23 785 -263 c -262 129 -432 176 -643 50 l 141 -223 z" stroke-linecap="round" />
</g>
</g>
</g>
</g>
</g>
</svg>